<mxfile host="65bd71144e">
    <diagram id="x6B9JygqgTEkM7H1BWpy" name="Page-1">
        <mxGraphModel dx="1378" dy="807" grid="0" gridSize="10" guides="1" tooltips="1" connect="1" arrows="1" fold="1" page="0" pageScale="1" pageWidth="850" pageHeight="1100" math="0" shadow="0">
            <root>
                <mxCell id="0"/>
                <mxCell id="1" parent="0"/>
                <mxCell id="29" value="" style="rounded=0;whiteSpace=wrap;html=1;fillColor=#f5f5f5;fontColor=#333333;strokeColor=none;" vertex="1" parent="1">
                    <mxGeometry x="520" y="210" width="300" height="210" as="geometry"/>
                </mxCell>
                <mxCell id="15" value="" style="rounded=0;whiteSpace=wrap;html=1;fillColor=#f5f5f5;fontColor=#333333;strokeColor=none;" vertex="1" parent="1">
                    <mxGeometry x="100" y="120" width="360" height="390" as="geometry"/>
                </mxCell>
                <mxCell id="17" style="edgeStyle=orthogonalEdgeStyle;rounded=0;orthogonalLoop=1;jettySize=auto;html=1;exitX=1;exitY=0.5;exitDx=0;exitDy=0;" edge="1" parent="1" source="12" target="7">
                    <mxGeometry relative="1" as="geometry"/>
                </mxCell>
                <mxCell id="12" value="" style="rounded=0;whiteSpace=wrap;html=1;fillColor=#fff2cc;strokeColor=#d6b656;" vertex="1" parent="1">
                    <mxGeometry x="120" y="140" width="100" height="330" as="geometry"/>
                </mxCell>
                <mxCell id="2" value="Pod" style="shape=image;verticalLabelPosition=bottom;labelBackgroundColor=none;verticalAlign=top;aspect=fixed;imageAspect=0;image=data:image/png,iVBORw0KGgoAAAANSUhEUgAAAIAAAACACAYAAADDPmHLAAAAAXNSR0IArs4c6QAAEjNJREFUeF7tnQu4XFV1x39r7k1IpIpgggXa+ghohBJKqyDSqiiUxwcWpFAK4Su0eLlzJkGDgFSrxAfYRjAhyZwJsSg1UnlUHkVKaBSpVloFJCIgj6ptlArhqVDyupnVb6975jK5rzn7nDNnZu7M+r75Jjez99prrf0/j733egg96moLSFdr31OeHgC6HAQ9APQA0OUW6HL1e3eAHgC63AJdrn7vDtADQJdboMvV790BegCY+hbQAWYxjTlU2Q34jVGfKsKzwHNUeZYCzyI8xyaelS/ywlS3zpS7A2iJ9wJHoMyBkc+rEk7kr4DvAncBd9PHfbKCpxLyastuHQ8AHeT1FHg3cBjKCQivbLKl7wZ+AHyHnbhNltrdo2OpIwGgg+xFgWNRjkU4tmXWV3tc3Abc1qlg6CgAaJH50YS7Sd+5ZRM/3sB1YJCQq9tKtkmE6QgAaJEBhAHgDzrEsPeirJYKq9td3rYGQAdO/Oj5zhQIuoC5spKHswRVWwJAS/Z8/wjwh1kq20JemQBBAxYjfFfKrMtKl7YCgC7gDVRt4s/OSsG24iPcgfJxCW1Z6UUa8JvAN9ySVEJ7HGZCbQMALbIQscnfKxPN2pfJZuBvJOQyHxE14ELgs8DzErKrT9/J2rYcABqwN3AxcHJWSnUInxsiIPy4kbx6BjN4BfcA+0VtD5SQ9Y36xfm9pQDQgNNQLkH4nTjCTsE2vwR7JFw5mW5aZBChArxo29jCx6TMJVnYo2UA0IAVwIIslJgCPP5WQv56PD20xOuo8m27SIRFKEuB9RJyYBZ6twQAWmQtwpFZKDCFeKySkOJofTTgK8Bpdh4hLES519ooc6TCT9PqnzsAtMh6hAPSCj4l+wvXsImB2imkljgd5cuma5XDZBV3asC/Ae8EBiXkirR2yBUAGuCeeW4506OJLbCWIc6W1WzQgCeB3YGRu4PtBcBFwE0SckJaQ+YGAA3QtMJ2Uf/vofwI4SzgMfo5XJazwe78g7yHAt80W/Sxe9rj6VwAoIFtfBzSRROYnapVjpJV3F5jqIvpZyNu6bg3ymlS4R/TDNZ0AGjA5cA5aYTs2r5CIGVb/u1AGtgh0weAqyTkzDT2aSoAtMjFCB9NI2DX9hVulzJHjae/ljgF5avA4/QxR1awJamdmgYALXEOald/j3wtIGyVMjtN1E0/yGsZYgPKdITjpMzXfYeotW8KAKLTvFuSCtXV/YQNUuZ1jWygAbcCxyB8Xsp8uFH7iX7PHAC6kH3Zzr9AYyWSCj2F+90tIQfF0U9LnI+yJDodPDROn/HaZAoAXcwMNtrkH5ZUoC7ud4uEvC+u/rqAt1LFOahWmcaecrntGXhTtgAosQTlfG8peh1WSshCXzNoYHsDv43wfilzo29/1z4zAGiJd6K2TdkjPwucK6Ed8HiTBvw98FfAEgnNl8KbsgNAYLf+o70l6N4Ov0BYIGVuTmoCDfgz4Brg2xLyriR8MgGABgRAOYkAXdrnBgoslpX8KI3+WmRXC2tTtjKDV8tSNvnySw0A81UT3N51tzp1+Nj8fxE+M97ung+T+rYamJfwm4EjJeRfffmkB0CJj6Lm0tWjyS3wZbbzGbmCx7I0lAasAeYDn5aQT/jyTgUAXcirGOIHiAVh9mh8C9yCsDrNbt1khtWADwLLUO6QigXGelE6ANQG9xqyaxo3deJrVtSAd1gEs/B/UrbQdy9KDAA9iT5mW5TsPK8Rp37ja1HWSMW2aptOehLTmR0dBimHSIX/9Bk0OQDq3ZV8RpyabZ8D1lBgjaw09+1cSUusR83N7nwJudRn8OQACPga8H6fwaZUW7Gt17WoJZBYKyE/b5V+dRtCN0vI8T5yJAKAns0+9JlXSp/PYB3c1kXzPIzwMMojwK0S2j58W5AGFkq3CviZhLzRR6hkAAg4D/icz0Bt3vbXliNIed6+axPtvqs8LKv473aWX0scjEbP/peYKVfhABuLkgLgO20euesiaJwHsvs8Yd/CL6nyhH0rz9DP81R5ntk8J4upxrJWmzbSRezGFp6JxPMKG/MGQHTe/2Ab2cJdve4Qyu1H3MM07pVlNvFdRVrkGcSyoJ0qobmLxSJ/AAR2+uROoVpHwu12y6typwuWaJ0g7TOyBvYIONh3RzAJAGpHkK3QPpfNlVYoNnpMXcD+PodFdSFk/yQhJ8XVIQkAHqgLU447Ttp2XTPxNUM5v0qf7eO6iCGvwFEvAFjGzf5cEyU+grBEynwxLYI6qb+WOARlhoR8K67cFmqPBZJ6JZDwA0CRoxFz/MiDljDE52Q1T+cxWDuNoSWuYjYDspitceXaYSk4nV1lmS1pG5IvAFwal+UNuaZtoByb1156WlGz7q8DzKWfiyXkRB/eSZeCfgAosRz1d170UYQC83xefrx4d0DjKJRug28OIaeaBmwD+l3KXKlwUxx1/QDQbL+/IV4tq3EJmruStMSb7GyhwNFJDpU0sBQyO6MskgrL4hjRFwDOm8UldcqeprNnN27g1BvSgj6FWVJOdsg2shmkXCIVPhZnknwB0JwY/5TxbXEUbfc2WuIY1HwITpGQa5PIqwGPA3sCyyU0T6GGFBsAGpi3SfYFFJSTpcL1DSWd4g004A5gtoTsn1RVDSxn0BuAKyW05BINKT4AXETqNjtYyY6EZVJmUXYMO5NTXSS1SyCZ2MFWAzuinwtcKyGnxLFGfAAMMId+/isO05ht1jOdw+KuV2Py7LhmkW+FS/kyiz72lxX8JKkSdQm4nL9CrDoK8QFQZB7CD5MKN6afx1IlszHbkJEGlv7lj10iSClbgE1iGjkQUu6USrwA3fgAqHmfJhZvh47fkJAjsmHVuVw0MC8e583zAtt5u1zBQ2m0GUkhp1wjFf48Dq/4AKj3OonDebI2yulSsX3rriUtUUJZaQYQPivl9Kl0NDAAvQVlmVTivVvFB8A57MMQj2YwY/dIyNsy4NOxLKKaR7+IFPg5Qxwsq9M7sYxsBMFHJLTkEQ0pPgCyOgkULpQyf9dQsincQAM2uiVfdPVfIOX0/pVa4jXoyMHZX0gYZRhtYMf4AFhMgY1sTzkvQ2xn36zj41LKlGt3LfHvKLWULvfzEgf7OHFOJKwOciAFC9RxFDtQNDYAHFcN7IhxlxQWu05Ci2nvStLAVlEvR1Jl+C6kJf4EjQ6AlAOkwv1xjOwLgNpOUxzeY9so50jF0sR3HdXt0g3rntGLX82QUcWV4aN6jxSyvgBwYU/JS7cpx0jFCi12FWlgXlSz6pT2juBpZDAN7D3CxWtsl5D+Ru1rv/sC4J+B4+IyH6fdPhJmupuYQpR8umpgQRr1SR8fpcBRspKfZSmBBnaA5MruPC4hvxWXty8APg58Ki7z0e0kzC4pVVIZ8uqnE22dN8nbSQN7ATzQxUZIOf4y2w8A6XwCn5YwWvrkNQstGkdLVr18bLoWIZMl32i1Ri0Bvyohp8ZV3Q8A6fYCHpHQTqqmNNUVeNpRz4xf+uqZ77ACgPN83Mm8AOAG1cCWF/5n1sMVL6dKJdBxQaxFliDjJMr02JpNcnXUvQCOlJaJyycJAL4EnBF3gJF2HidU3rxb3MFF8VC1d6OxsfnC16TMnzZTRC1ZlraDLF3cFmbVag7FGTMJAFypN/+1/BQFQJQj0U3+a8Yx+I8lZN84E5G0jZZ4L2olZR39h4SWMyg2+QMg6angFANA5MjxSZj42DWPVY8WWYlQshlPUFDSGwDRe0CSDaGfSjg10slpkTMRu+VPtN72WovHvlxHNdQLeCUvmhvYcL3lPvaTFX4+BckAkLQUzBDTZbUFL3QkRSnZnA/jxM904ftStjDtppOWOAvlC9FAXunma8IlBcC7kARx+VX2l1W46OKOIh3k9RTMwWLy4lfCjUl9+pMYZNTJ4lmNahCPN0YiAESPgSRh4iUJCZMo24o+upjpPMkihA81LHiplKWSXy1kLXEyOhI/8DRDvCVJIG1yAJS4DOVcr4npkBdB/TCzeIn5CKcDv99QR+UCqaR36mg4Tl0DDexQrVZVLHYcwOgxkgNgkCMpsNZH6KjtQe2UYq1efg34vahQs4u136OhbsJDVDkv7xPOHWoKOyFTRFYlBoA9BmobEA0tVddgOHGy84RtC9IBptFnbtlu0mN50kaCX+eOX/NOEGnp+YeTYr0pkuNBCfndpMZMC4CXq1v7SKC8VSpRGXSffhm1tbp72zgcsU2Uw63ujh99QkI+7dclm9ZaYiUarfvtKowfCJrpS2CN2Uhgg59+X5HQnq+5kQbmLu0m+3AKNvE7ew+utvJZKhWcX0TupEVOQnB3nhptosqhsor7kgqT6g5gAAzMQcTfIAl2rXyU1IXsxHaro+O2Rl0e/eQHUcpPrEBjC1cwWuIElBtG2SBRkYh6HqkBEIHAoTJ2arIRATKODLY8OW6y1SbdfXb1Ac04bV1N3qX08fm0ZdrTyDGBc8mD9PEOWYFLlJmYsgFAmpJxKUCgRd6IcIR91K7w1ya2RH1H519fsMilNVIecbXOhLUvEz2DGbxi3GJQZ0rIVb78RrfPBAB2FyjyBSReTPoYoZUPSGXy7KM6wC708TYKduzpIovcZ3gPPDtaD1zNEFdnEamTVix7b2Hcvf2bJOSEtPxd/+wAMMheFHBhzq6CVRL6Jspy94Jl1UhmjZnspHzjyOIyc1ztk2M3DtM0beoyhoxm8xRV3pPVlnpmALC7QGC5bVwhiTTknBsb776lGcGE5U6EWynwdVlppdfaguxO18+FYJ+xpBSlYlHFmVCmAIhA4OL+LshEuuyZfM8Ve3AT3+pn+7hzW+RUxCZ+Ipe7zJfP2QNgMf1sNA+VRKVMM59zsdw7zkN3XTtOul00JY5FGZg05kJsKXpE1vEEmQPAFBrkUAoGghmTTOgtNjHKkwjvjpaRwxGz6WgLyjqGU8qvk4qVeGlLijXxNclTVAifTPmmAMBAUORchMvGGfxxhMHRmbCtCOV2O128yHu2lGcR1lHgdvctK6jF3nuzanYHdbEVBY5GrdB23JyLn5SQxc2QrWkAiEAw3tLwRAnH7GiZbvoh9mCrRdDGuRO4Kl3rqA5f7VLBlW5rG1L3KHyCuRQ4ALENqv1QO7TZ3VPIGyVMljgyzjhNBUAEgm9Ft3j3590SctBkgmlgVcgnSpbkEiG6cutreYrb5frhbNq6iJn8mpnMZAbCTLYxkwIz7d/KEH1sYjubKbCZrWy2jZXn2ZxJXP5wsMxclLkIb0aif8e/uiczxwMMcbysTp45rBEImg4Am6DAbslu0+YyCS2CdUKKnovu/aCebkJ5DLEsGLMoRN/Drtj1UbeN9B3vdxe86bZ83XftswVhM2p/u0hb9y6zE8IMl8d/5O/h/48diesp3IMUOC7rl77RMuQCgAgEivIPUpk8qETboSaR50w1ofkT9DEvj/OH3AAQgeBXCPOkzP9MZDQN7GQxTQh6E+YjV5bb2IldZOm4+/+ZC5IrACIQ3CahvQGPoQlu/5kr3bYMlcekMuLpk4uYuQMgAsFFEuKiakZIixwfVSPx9c7JxVA5DBI7v2+WsrQEAAaCYadS52fv8g8fEp3uZalbJ/GKndcva6VaBgADgdv8GaKEcEnWinUIPxdq70q+j00mkZMCLQVATUddwIlUuTJlCrqcTJbRMMoapnO+XG5l6FtGbQEAuxsMx9ivBt7eMmvkN7C76i/Nb7iJR2obABgIXCjWU6xCObMdjNMEGW4ELpWQu5rAOxHLtgLAyCOhxF+izId4Oe8TaZ5vp/sRLpUya/IdtvFobQmAOiC4QkoOCD4RO421zquFO8NXcy51V70r6dZ21NYAGAGCS4Tcx/wIDL6naa0w+l24lzzBefC05cTXjNIRABgBwgB7MG0ECC8nXW7FFI8dcxPKzRS4Tsq4Z31HUEcBoN6iWuSPLNpH7HvcreWcZsAdd7syrTdPdsaRkyzew3QsAHYAwyJ2Y6sBwUUF+Xja+BrM1Uv4Plhg6wNUuU9W2d8dS1MCAKOtrwF7R0BwkUOzXTlW1LyM3Mf5D8xsMGMvgZXHeRS170co8BAb+aFcn7poRluBZUoCoJGFrQpqgdlUDQzTUF6kjxcQXqSfF/M6im0kZx6/dyUA8jBsp4zRA0CnzFST5OwBoEmG7RS2PQB0ykw1Sc4eAJpk2E5h2wNAp8xUk+TsAaBJhu0Utj0AdMpMNUnOHgCaZNhOYdsDQKfMVJPk/H/zBU3Mo1OWCAAAAABJRU5ErkJggg==;" vertex="1" parent="1">
                    <mxGeometry x="140" y="170" width="60" height="60" as="geometry"/>
                </mxCell>
                <mxCell id="31" style="edgeStyle=orthogonalEdgeStyle;rounded=0;orthogonalLoop=1;jettySize=auto;html=1;exitX=1;exitY=0.5;exitDx=0;exitDy=0;entryX=-0.1;entryY=0.433;entryDx=0;entryDy=0;entryPerimeter=0;" edge="1" parent="1" source="3" target="4">
                    <mxGeometry relative="1" as="geometry"/>
                </mxCell>
                <mxCell id="3" value="Prometheus" style="shape=image;verticalLabelPosition=bottom;labelBackgroundColor=none;verticalAlign=top;aspect=fixed;imageAspect=0;image=data:image/png,iVBORw0KGgoAAAANSUhEUgAAAIAAAACACAYAAADDPmHLAAAAAXNSR0IArs4c6QAAFI9JREFUeF7tnQmYZUV1x3+nexpkFWWRJcqSgKKADhC2YUAUZQ2CcQgYECRkmHffDMvH8gWFLxjAJYAsM+++pg0TBFyiGBBZxJgICBplDQgBDGqYCMKMISKMMNP9Tr6qvt287n7v3qq6975+093n+943H/SpU+ec+t+6davOOSXM0LT2gExr62eMZwYA0xwEMwCYAcA098A0N39mBpgBwDT3wDQ3f2YGmAHANPfANDd/ZgaYAcA098A0N39mBpgBwPTygM6jl63YgFVsAKxPLxvQoJchnmdznpMLWDWdPDIlZwCtsgPKbgg7o2wBbAmj/26cMcC/BZ4DfgU8hPAAfTwoV/D8VATGlACAVvkgyiHJoO8G9ukumgwo7kP5JvB9qfNS0R1Mhrw1EgC6gG3o4f3AAShHIaUMePp4KN+ih3+lwZ1S5xeTMXhF9LlGAUArHIFwDHBsEcYXIkNYhfJt4Nusy81yKa8WIrdDQroeALqAzeixA25+e3bIL6Hd/A9wM8q1UufBUCGdbNe1ANDT2YjVRCgRsFUnnVJIX8IADQa6HQhdBwCdTx+9VBE78NsXMhiTKcQAQalLzCOTqUa7vrsKAFphHsKngPeV6KzfAysQlqP0AW8HNimxPyP6ZeBCibm05H68xXcNAHQhR9Cwi6kiyHzL39/0W0YvK/g9K+RaXhvfgZ7BOqyyQHg7Dd6RgGL4v4X9gTcVoRTCnQgXyhLuK0ReAUK6BwBV7kWZE2jTywi3otxFLw/IYh4OlNOyWbLPcBhgfjvklD0EXCQxF+SUU0jz7gGAWe750WrgNuBW86/E/MaveRi3nsLu9PAhhA/ZfYhwukliPhrevJiW3QSAXydbtlmWPYKylF5ulSX8Mou5zL8nW86fAE4N2n0UnqGPuZO5zdw9AKhyOcrpKQP2NBAzSCwDmKe/a0hP4d30WhCcEqRUD/tO1rqgewBgvvtX8YMWXwDL7MD3Estiu5ruWtIKcxELhI8FKDl7Mj4VuwYAxmEa2ZX4OSg7WQf2cDvK9Z16vwcMWrtF41Eoi7zXCMI2UuO/i9LDRU5XAcBF4TWJR6ucjHIZsKGz3q+xoSzF7FV0hEoBgP1sanBe8hS/TINfI7zYLZ8+zZ7VyM4wx5flba2yH0o/sKNrHxJ3LmWvcABohSUI1TbGPkUPR8oSnnR1Rpl8ySr+KYTzpcZFZfWlZ7EeK7kJ7KdjNglPSs0dMNkC23MUBgCtsjUNliJ8wEGhDSTmFQe+Ulk0sqt283SCcrTUbbBHaaQR/wic6NjBDWXOTCM6FAeAiBuAv3Q0rl9iKo68pbFpxDeAeUkHr6PsIXUeLa1Dg7MKJyN8yakP4RKpcY4TbyBTIQCwR7ev8wzCW531EPaRGj925i+BUSP+F3hLk+hH6WUPWczrJXQ3KlIXsi0N5yiiz5S5dioGABWOROw7zp2Ez0nNnvxNGmnr7edvSszRZSulC9nSLo7d6BCJ+a4bqx9XMQCI7MHG33p1LdwpNQ72alMwcxsAmPXARVLn/IK7myAuCXFzOQF9COXAMgJRJw8AcI3EnFy2k9PktwWAaaQcL3W7rimVNOLvwAFsJqikboNkCqViALCA99Njt3HdSfms1Pm0e4PiOTMA8Ay97CdLbI5AqaQRtwOHOHRygsRc58DnzFIUAEyYts/J3Ks02Ev6+ZmzpiUwpgJguL9Y4rZ7GoVpZD+h1QawbJoh9H6J2aOwjqGYHSfP71szvZb+9Ot83kEfZ7Ga82WA3413mp7OFqxyeLqFI6VWWKRS27HTKh9BuTlzcJWTpG73Ewqh3DOALmAnenjMQ5vPS8y5HvxBrBqxL/BD4EEGOVgGWNEsSCs2dewBB+H3szb7y+X8wYE3F4u6LKaF+6RmbSuE8gPAfXfrDpSvdmJhZTyjFT6O8BXrJeGvpMbSMQAYPqhx25CBiyVOzjYKcXtrITqfNzPL7o1knRscJ3FiW059cgEgOf++J0OHFxAOlRoP5dTVq7lWOQ/lwqTRjyVmnzEAcAfucDNhf6mRZauXjq2YNeKvgYFUQcpdUs8VjjYqPh8AIv4JMjdNOvL0jHeYVvkKysdH//9K1hmJCNZT2J5eG5mbtehqFvs9iTko9wg7CNCIfwEOzABBIWcXwQDQCocg9vMljV6iwa7Sb1OtO0Ya2bwC81m6UVOnW4wElmhkD4D8w7eEM6XGF8s2RCscZqOc06kQQIYDoMpVSdRLezU7cJjRZho129JHjvlbDzuaY2iN+DBwZ+AgLkN5bxk7chNmsIgvAybgNM2/ub9QwgEQ8XPgT1LUW4myq9R5KtDZQc20wukIl09o3GBP+niFIXsC+J4g4aaRcJrUuCq4vWPDZBYzC8L2SSnKrVLnzxxFtmQLAoDj9H+VxJyWRznftm2m/mExDQ6ghyW5Bn9Y0gMS86e+uoXwa5XPoqmfzK/RYGvp58UQ+cN4DiDNnv6Hkqe/1LP1FtPm14G/CDDJt8kxEtsFcKmkFd6JZERPNThW+jF2B1EYALKn/6slZkGQRoGNNLLBKKUf3iTqmUykwwNV9Wqm2SlzuYJrvAHgOP3Pk5gbvSzNwZxsoJhdv51ziPFpOkiDrfJMva6daYULkdRNqCclztw4atudPwAiLgHOSjFgiD62kit5wdXIvHwO78q8XbRq3xGQN21pt7dB2ElqPB5iZAgA7oDUQI4fSsx+IcqEtNEqe6Pca9NIwsjs8a/j3VT4B6nZXbvSSSMbPrZtymN8htS4IkSREACYOjjtS7YoX5A6fxOiTEgbjewJ2kcC2poFqjkr+EJAW9NkhcReO4mB3YBW+RKaGjxzu8Q2dd2bvACQlGfLOvc/SGK+561JQANHfcZLNgUfL5OYy7yPscdLGmTT8aeMAWZkNtEFHE4P30lhfE3igFnM9zNQI7vpcEuKIislZr1MiwpicDo4ae5LqCFcZtLKA8EzVvNe3ieL+Y+CzEkVo5GtbLJ2W6YGB0g/d/nq4jcDRDaEKy2DppD9aVcjtMJ3EccDGuUSqb8RY5/76TdKCodJLfM8xNWcLACYWTUtsyjoiNgXAFkbLWd3qhCSzmcTZrHc0bsT9iW0wg8QW200D82X2DmmIE8/JnM6PfFGOEdq9gvNi3wB8O8ZxRrnSmxX5KWTugaiCl+X2sTKogUBoNSkjWYnamRPIc9IceyVEqcW2GjZ1BcA6QdAPewiS7zCw4KB4giAtsGnhQBA+ITUuD7YCI+GGtkvq8+lNLlR4tE0N2fJfgCo8NvU9K9BtpYBnnXuPQejEwBSgk81uySNi3ZzJOZHLox5ebTKSSjXpMiZEPXk0qcfALIqeQ2yUasIXBdFfHkcAfCudsfRSem37/v2O4a/j807teOpVQ5HUz4FlWelzta+9jgDQM/grbyOKcDYljpZ2EBPZXsGMYWj2lHmjqRGNuomaAMFeEXizpWp1yp7opg1WDsakphZ5QEgssEfZg3Qjn4n8ZgQLF9dvPh1EWszNLHqZ5MQpwWaw2lbO70elZj3eimdg9kpozhgRnKfAbIQKDwrNf8pKIdPzKdR2qLUCQCmf43su/UkL12EK6SWuir3EpfFnFQZSS+qIezmG33tDoDIhlWn1bh9TGJ2yTKkyL9nTOHOAEhA4JfhLOwlNX5SpD1pshwB4K2TOwAq7IKkbnveKzFzO+UQO2gVjkPafoZ5ASABgWsJl0ckZnaHbd0OU1k0jWaxg1yV+pqe0NodAPP5Y2bxXyn9/6fEvLujTrnA7gU+hvKuFv36A2A4BMtsZGWVj/eWndcvWmEvJKOiSsDhlDsATuNtrE4tyPyqxKyf11Df9in5dN+RmCMC5GV9GTyPcnDZtYTG6+2UPLoZvXIBDR+b3QEQ2cFNL2AobCK19E9FH+VceJMsX5Pkae4GbKag83pTNxA4LqXvjgSETgBAdspY0FeYMwCSd2R6SffhLKBctfp1AXtIPz91GfwRnrazQEAR5tQdQmGh1Kj56JasVfaSeuo3fKZIrXCeuWwihfGXErNdpqBxDL4AMEke7S9MKCCXPhnME1HusTdsrM0dcrmt5pVKWuUnpszbGCblTKn7pXKlAMD5va9VdqXBHHrYJ7kE459DDmqabXEIxX9QYnbP8tP4v/sCwASDtM9EUU6VOot9lRhnaKsdL7P4fBi1s8sjCA+3KiDdouLHYwyylwyw0lUnjWwf4+8sSo1y0oXszBD7ITYW0vw2H9NfAYdGmpWIK9wiNf/QOF8AmEuPzkxx5qUSc7ars9vxaWRLx2Slb5ltabMVbDaDnkZ5mlk8zRCfhDEZSedKzOdddLL1DleNuRL25wgnmHqGNv5gLbZhiG0R+9sGtYGa5i7D5lqD47taQS+zZTEmljKYHE4vne1sVsIPABXmI1ydYsU3JM6fmaORjXDNk1ZmwqfManjd5N+7wX7BmFIx/wdtCkGq/Qw0N5MaMiA0ASfmsmkz0KH3Eed+KHQ+6zIr40bSBh+Ufv7NF2F+AMgOwnhc4qTWv68mTfxaYTt6uBvlj3KI6YamJoFkdt5iWLqQg2hkFIp8nY3lmuy1Ur41wDx62dQ+Pb1tvdvLe2QxT+T1/phCznmFTVZ7YbHU7A0iuUizk3Eekhhza7o3ec0ARrpGNrfe5Ni3owsk5jPemrRooFVuRPnzImRNgoxf0MPcIuoMamTL67TfehYGpBZQ8MI3LNwCoMqnUC5OcWghrwHb1/D5g6mRu8UkDGDeLgsJGNUFzKYns75SVWLiEIX9Z4AKByK2hk17UvbOu/ExIlyrHIPytRDjJrFNYQWnNWIhZHxaN9jTd/NsxDf+AFjEhgzZXDWzOm5NBReCdKqfN4mjPa7rwgY/mQW/1vRl0srKeyS219sGkTcAktfAtSgndOI1MDoTVOwsMHaDJcjkEhsJy4sqNW8LcAr7JKnh5ja1dpQrFyMMAJG9Fy/repWO5QiWOKQdF50c+5p9ELPBlE2DbCkDmHzHIAoDwIm8ifV4CrU3bbejUsvB26jgLqGQnLxWqieRv9emvl7HNgw68m4WEQQA+xqI7KlYVv360mYBh0rfnYFHYFLmeOV0ON7CpKxv5qx4Dx+TJXzLmb8FYzgA3ApF3iExh+ZRsF3bKQeA7M2e8a4IOv8fLyQYAMkskH46ONzbJyXGTGuF0hQEQHqsxUTvFVKuLh8AsrJVhpV+lEH29jmSdUHKDABYJnHqGszFjWF1Apsla2QLRmRVqzxP4tTdQydlx/Xr+8R49+HUoKg1QFba3cS5e5XUUgpGOCkfWChyzEC4zQLmsoa9JU6NKnZUeZgt2RzyalMKc4O7ivgK0Ihl4HH6WVDJ+FyvgBGHamQrVWZV6OzI/TulDHIHhGpkq5e4F6wKLAhR6CJwFAAL2R3lPpS1Un1VkNLt+tAFbEZPafUJS61+6lQW9g3DX0D5cBGh6YXMAHZKrnAx4nATqFKRenJhcwlPVmmLwxbXzhStvlaYh9hq5ukkHCu18PrAzcKLBMBbEJs7mHXfjbk17CipO9yQleWIFn93iFcIkGoPzoOrcfp0mIDgMmDi/r9JDVPMreImj7EQKgwAdhaocjzqdLHhEEPsKFf75bG5WOwQPu0iZjzPzyTuWB1idB5rsan1pcl9XI7wGxo8gdjBT88Q9rSuUAAkq/OsWsIjKr4kscdt446G6XAWs4laKi5NreTXlqNppbAVDoAEBFlhY8PGBJY1yfJEwfGEucqxZ+k62X8vBwDDoVymsOHbHAz8kcTMceDzYtGIKyF3QGbHU969jCyAuRQAJLPAscBXHXV8jUF2koGM/HdHYSNsSa39akbiRjupNyTXyBd255EuYA7COYhN4eoDnqLB+UVsJHm6ZpS9NAAkIDCFDd2vWRM+KjXMjV+FUXJHoAGBia1rH84+ihpbb/dyqafWRPbWT9PK7DbYV/pTq6949+faoFQAJCDwK70ChYWVNzvBJmyqrWBiLnwySaTbJ383t5uZbOT7EX5a9E0nuojZDNn6yu2PxZVbpO6f1+c6yGl8pQMgEAQ3McjZRb8SxgDCBGAMspVvUSUfp2uFKmIHv/kCy1YiXpB4cuIdOwIAC4IKixCP+/aG6+GcXfQrwWcAQ3ltSTfz1EvT1bXpwp6TOOUSjlBFHNp1DAAJCNy2OscqbhJDTHxhxy6hcvBbSxabxNnHouRG1fa3qkxsfbPEHBXab552HQVADhCYPYO7UJZKf2eKM/s6VavMTwZ+J8+2Jlv5AIl5xLNdIewdB0ATCEwhCZd9gvGGmnKpS1Fu7MQdvlle1ipHo/YLI6RE3uMo55V1LpKlu/n7pAAgAYHZLDLbxmmJpmk2mNz92+xvJbeOXA3vYnReHlPHiB4+ADYj5+BAeaY6qYmUMnULJo0mDQAjFjukPrs4Z5m9br3BbVK3oCictMqhqA19M/kIreoSuvZpBtwMfFrpd1dZufkmHQB2Nhg+RTzX6Sg522QzM5iTsydQnqDBw+bnGpSqVbamwfaILYY18jsg9RbvbJ1GOG6ml08XUT/Bvct0zq4AQPJKMHV2zqKHszIji8KsN5lM7VOoxCa7mgFvfzNXWL+m1erkqf/7cBHltOwaAIy+Ekx4WcNeTZsVY1iOR4qXap76L8pizN3GXUddB4BRIAxHG893CDnvOqcmT/x19PLlbh34Ead1LQDWUCCYBd7IwOeuk9QJZHc9AEaBMJyLeLj9pWcld8Jv4/swN3dfZ36T/Vnna/waA4BRIJjU9HVHgXC4Ryq1r2+y+B9KgmDvZTU3yYBd6K1xtMYBoNnDOp8308ccW5dX2BdsZFH2mX/YMJlyteYugbsZzgb6VZiY7mq1RgNgvCvV1DHcmLn2G/6N7/h3pha4fmM19CpqK4OO/F60/232E6bQgI/32ZQCQNqzpea+gz7W4w+sTy/rITZqeDUNlvMqy+X6jFKs3fXgFqbNtAFAYR6bYoJmADDFBtTXnBkA+HpsivHPAGCKDaivOTMA8PXYFOOfAcAUG1Bfc2YA4OuxKcY/A4ApNqC+5swAwNdjU4x/BgBTbEB9zfl/DCIQ2yFewyoAAAAASUVORK5CYII=;" vertex="1" parent="1">
                    <mxGeometry x="730" y="275" width="60" height="60" as="geometry"/>
                </mxCell>
                <mxCell id="4" value="Grafana" style="shape=image;verticalLabelPosition=bottom;labelBackgroundColor=#ffffff;verticalAlign=top;aspect=fixed;imageAspect=0;image=data:image/png,iVBORw0KGgoAAAANSUhEUgAAAIAAAACACAYAAADDPmHLAAAAAXNSR0IArs4c6QAADhFJREFUeF7tXW9SHLsR/wk7y8f4nSD4BLFPYHwC4xMEfwvrVAWfwHCC8Kridb4ZTvDgBM+cIPgEgRMEPiYvrFKt0cLsMjNqtVoz2j9TRRVVq9FIrZ+6W/1PBptnjgJ2jL8COITFJ/MV56tOHrPqE+TOzx7iBf6LbwD2au+cY4QP5gS33H6Wrd0GAADsGK8A/AJgp2EBrwG8NxNcLdvicsa79gDwi/8rgBcdBCMO8HYVQbDWAGAu/gwXBIJPZoJTzs5aljZrC4DIxa+v5+tV4gRrCQCv8P2zReaHNu8tRni5KorhegJgDFp8Uvykz5WZ4LX05ZLeWzsA2DGOAHxOXgSDT+YLTpL7GbiDtQKA/TN2sIV/KdF8JUTBegHgAL/CYFcJAIDBmfmCfbX+BuhobQBg/4JdTEHnfc1n6bnA+gBg7Oz67zRX3/f1YZltA2sBAGXZv4ihK1gcYhs/lvFouB4A+Oi8e3/LsPsXuyRr4XcABIrv5isuud90IDV443QU6/5f1FWyHD1XGgB+5xPbJ0Ut5dzPXcdmQFicYxsXTRzCHuBPbnw85VRd3KwkABxRDQ4HWvQ2sBB3ID3kZzIle6WU3M9NHsjmPiqu8laKxqb3VgYA3rxbBXN0e/Y06Sfti1zM/IWvf2WKl+YfoPdVnqUHgGfzZNlb6vM4ezWVLZBLC4DajifT7jo9F2YyF7WUNPesAHCL9BvewOIVrNdqu5Wda1jH3ij6hjTpyyZ252U82eG7gjiSCFPwy9dmgpda41MHgPOzW6eE0TFGQ/MmUJyT2RVT3MLgG1Nj1qJRcf2YCdTWTaUjt9P/g3cwztMmU254ZCZNeh13/Rx1ygNAHjs7DxLr2GoLb83fncEp+dHhAAfYg3FRtZunBwqUxwG0gix6IN4qfKJEANAZnKxamyc3BSx+mK8qyrUbqY4IWC0d4AZwR1GSsdfYwjX+h+uQ9c0ZpJ5jB1OnBNMfnYDoJPR7ZUxcY4TXWp7HDQCq1bmAwXfc4zy00LGL6Y7FlYePwKAFiHMzwfvYsTS1X18AVHaF874TQG2lMJO/4k3iAp6aCT4k9qEkAnSDLVPn1PU+sfdTjHCixUKlg3Ui4xmOYJ1ZVyomyLNIYBI/KhyAvm7HsOJR5H+RFv6oxNAt79OgRaQ/CRCSYgT0AHCAKxj8Mf9aRn3hjghb4sIvzsL7TU6cGT3uSUpc1QNAvqDLOHI8tr7ACPtDs/rYwXv3NiWgxugI4pOBJgB0Mm5iKdas2i591o6Nj2MU6QOaAKBzL+XcDfncwWK/b80+14R9BjOFkf2B9Q2Bj0ANAF4RJHkkUWRY8ws0Inm/u0qp246mVekaEgmcnIboWAFtAORKvggBZCUXvz5p+xGnTAXx2EycW571aANgKJ/AShVtaFs5ZmbzLaZ4zbVo6gKgYldkR+9TDCSdg1nbpKBGduyCX7sdbxFJq6oAcDKLz6o0yCrSfDU+PGQfrBMCM3xcHwBVybX8pwFlt+iQCyr5dnCjMbmAOgD8aYBcqTGGDAkN1kLudxHGdltfWanreQCQPz4gStOVoGsZ3vFHRAqhb7YTMJJIsgAgMxe4wQivhjbx+vD3dmXX4K4Pm4Q3FhHHbRpL0C6QDwD5XMSDaP0P+Q4U6cPL5K2YiPXp4gbXmOKCezyL4UA+xqAtKLdTVGYDgOcC2v6BSzNRrPEToHIt/YyOXlr5DsSyKSbhTJOL2bEDWpPe1XlSygoABwJNN7HA1h2zk2ZtfaLLZx+5I+mC+845pvikwRU6qqB0ioGsAPA76N9canS26+nY5+8LIM7VZwbSKaY4TgVCh6WwVQzkBQDHasVHR1bZ73f9L1HynT92XkuLE2zjWCoaWk8FHaeB3ADQcg6RRp1tRyYUjuYtbFyrpPsJWhTC1pTy3AAg9p++cEyrVhydvZJeWS5D9wVIuk55J6k0fYNC2KoHZAOA31VaJuEsVr/Cdn4TYESh341FMUf4qUm05ASA1hHwxkzUjmAPRF6CxZ+NVQaCxWNhywkqJwC0/AHqHj+vLBHb1yhgkcLque9Gg6DBbdyoROcEgE6egMV77Rg/O3Zl3qmiWOxDkUezQpBXeFa7TeweL2Ae8gEJWNoxERIQ1EP0Gv0nWQCgKf81U6G9YUpSy+ASFicxQPQ5gVShNDbOvwuUUU6wOZdxiyKdBwB6BSPUTb927O4L4Jl1LX7gGQ5TqnH4hI99V0+YG93bBYEIa+jCkbCRlnkAoFcwQlX+s8KpHokftdtCssTrHaQYS0RPvXuWn//BrD12YorEUa8A0DIAqVr/Ina/6nfrq+ePaESfFB2BnR5eEwO9AiD1UqaKZhHsLrgD+WbpbItf25VUSu80MZeSNc6aGOgHAJq1+TUVwGAMHa0OI4ImBDTu79738D0BBMFgD6f0PkZqU7n5J9flqOkA/kNUk1+rZq+q/d+OETJLqyucITDUFkcqDnhcgIJzCN8NRaZVAJCpdKvagrDuC2KGUYcWNfb3QEhXqDsWF+jqJAkALVeuhwbN/V0PAKFTSUZnE2eyzIyftq5YXKDtZTEAPHIpQyWXOVWtKrYN1S4YaPfPnQ7GLqOKlwU8v5pJV8mIANCTI0XtHN4RL0dBm6p19zg7vqkNS0y1dd7i6eOMJRoAPS0+jV0TAF0KoNp3OATvamPlXEAsBqIA0OPiawOg3TGlaGtIBkB8VZDZJ8Xikg2AxCvX42mjqJh1VjBLYJ/xk+p+IymIVjgPPgC0790NU0/zFNDKATSNTeEphVt06itdrws5GQsAiceU8KybW2gCoLV0TYEAkMUqCK2YQQBo+vZjkaC1OF3HQK1vxM6trX0gzav9M0KRyQGAjmNHQiGhXFv8VFdBheIAIM+pFHHMTgBE+s8lSxzQinTCwTq5mFB26k/2sUdp2V0JmFsB0LvW30xRtYAQ+xgYMf8loexcfQCE7Oc5KfDYd5KZsz7EDj1A7RtaJCmDA8TEzmnNvKkfJTt9p6m1MDEwOAAGl/11ICiy6FYukOFWbumeSDEGqekAQe+ZdHay99RYdCBaqQifQIJTSBRA06gEDmT46YKHWm5gIClE7FSRYfvpW2I7QEvUb2hc7aeAfgs+do9TaORo6jQQi3eLLbxPyQMIETz0e8Lmy2AHKAkESsogLQAjDGswTiD2BVTIih532BJYDgjUbAIsEFB1L1JAJ+4qe9bjgDXCdWKFj9SSOlEgCALAEytcoJhFouRGarrAAwhC8flVmTcq1X7ZFFXrFEvjqnPt+/IyUZk7C7YKHTpHJNSyAOCIVVX/TM1oSUNAhuNa7IUMsC52r3qMq36yGBN5hxF2JFxA8fTFLhnPBoADQZVkQCDIXQe4HSiKdoG53UcAv8dJQqKGiy+EwX6M2JiNQTOhxvXJ3CxRAHgYbBW6RImO0oSGFE7ARrfkI/4YRqyYc0VL9Ylq4U9SrqdL0P7bp8kQBSIAPHCD3yC5506yLovvqBmH2gbjj4u7Xq63hb6TfkCJmmxFsel7fveT2z29oNb8B4J0EgNgjnVVV6BqFkLggCS6Ygan0yHasPIWpQML+DmSAbAgw4h10p8kwUEyxaUHQYLpl0evgBFNDQBzClVVIYQyUeli5NxgWFoQ9BRzcWsm+KkNLVkAMAcGOic/xw6mDhD0l+MEsZQgsH1FWneIgewAeAKGLacw5Tg9LBUIEiqV8Vj/fKtWT2evAHCnh7yRRksBgt7jLTr0gN4B4ECgeYfA0/1AHIbs4UlHM8k247xjx/gM8G/25PQZaHOJEfbaLJPDACD/pVJEkyMzwbECAdW6sGN34aNWBZXQuO5gcGS+uKKYrc8gAOhBFMwmXAQ38A6jb73dRWBwhnsccS6gGAwAHgRa9YRDu+EII/wscdCEOg79nql8ztPPkjl6C6f4HU5j5jksAPq9a5jyA08wxRlnZ4QWNvS7M/Dcg+4delKZK/Ru5++V34EccuSNvIXBFZ7jKmbR6/0PCgDHBfrRBxZpeg6Lc2zjQkq4tkWyH/EOUxyqL3z1wTtM8UoTwIMDwIsCnUCI+K1FXIHEEP1RTJ3o5GAPnHGLrJ9k+eTVIY4fK70RFe3D+UQRAHAgkFfH4MyT2+YWFlegSx6Ba8dep7WS8I+9UBTQDixm3kJu//J2ioGxRYmA+mAYxRzlBFzmN0nub2NXW1xVakQhz5B1CAohQdsw1OV+kRygEBFQGhbohpJdqW7CmUxJHECrxDxn3svQ5g5b2MudpFISAPg3eSzD8qWNMfvOnw2vJADoXDKVRvgS3u5t8YtRAgcyBpWw2PNjIG3fYk/T0BOaZBEcYAMAdx47M1968xQ+4GIDgNAW6ed3dQsfd9gbAHAplbGdpLKH1nA2ANCiZEI/GwAM4xFMWDLVV0WlXbRGUAYHkFfH1KLDkP2IKntoDbgIANBkpKXRGIS4zJSLwPg0q8mgxanKAYB+pPANtrA/M6W6rN8t7FFARVIKOGtNoxqpFr2I+nJR3kDdUjTHGOGky33qbA/WFXegWzwpiCPHle+h9bgxk6wBJKHvF+UOTo8KioiG7aKMA0fTM3Xx/JqpbYOy/2JMwU4HkCuCN66GzxSnuU2oCte91mGV1c8f3Pq+QTE6gAMBVw+oImNd8aacvvImIjJKzHFpP/juL4oD+JNAXQyQ9l49VYwexeolhUBzVybUzoEgVF2suxNxIanQ2GJ/L4oDxA5+yPZJBbMyFbqS0GMDAAnVau/4ULaYglmDGn4Wp7sBQCIAHhRYXp2kIhS/+pQ3AFAAwKwLf5LpqpM0qNGnaaobACgCoN6VPy1QptCsLM5gPv+uKf4fvL9GzGCPDzwAAAAASUVORK5CYII=;" vertex="1" parent="1">
                    <mxGeometry x="970" y="279" width="60" height="60" as="geometry"/>
                </mxCell>
                <mxCell id="24" style="edgeStyle=orthogonalEdgeStyle;rounded=0;orthogonalLoop=1;jettySize=auto;html=1;exitX=1;exitY=0.5;exitDx=0;exitDy=0;entryX=0;entryY=0.5;entryDx=0;entryDy=0;" edge="1" parent="1" source="7" target="23">
                    <mxGeometry relative="1" as="geometry"/>
                </mxCell>
                <mxCell id="7" value="Service" style="shape=image;verticalLabelPosition=bottom;labelBackgroundColor=none;verticalAlign=top;aspect=fixed;imageAspect=0;image=data:image/png,iVBORw0KGgoAAAANSUhEUgAAAIAAAACACAYAAADDPmHLAAAAAXNSR0IArs4c6QAAEO9JREFUeF7tnQ+0ZVVdxz+/N6REUkpCgqSYCWX4B0sQCRgV/4BLUEdMWlKiMr577gzln1DRFPwbqLVquOdOA9gULv80aIIKogikTMRYkRYJNlqudDQgtTJgari/1t73vMebmXvv/u2zz7n3vvvOXuut9da6v/37/fZvf8/e5+z9+yM0bUVbQFb06JvB0wBghYOgAUADgBVugRU+/GYFaACwwi2wwoffrAANAFa4BVb48JsVoAHACrfACh9+swI0AFjhFljhw29WgAYAs28BPZ8HcTdH0ONgeuzPHPsDD0H9/zuBHf5P2cEudsgm7pl9q/RHOHMrgK7nUHaxGuEY4PDi77DICf0h8B0PCinAATdIh89H8pl68mUPAM38k3wywrHAicBTarT6vcBVKJ9mH26UDXy7RlljYb1sAaDrOI4eaxDWoDxqLNbaU4hwPfAF+qvDzRPRIVHosgKA38vv5Czg14BnJI692u7C7SgfZicduYzvV8u8Pm7LAgD6Wg5gp5949/dL9ZmjEs7bgZy76MgW/rcSjjUymWoA+P0d3oByFjKhZb6s8ZWvIHQk55KyLMbRb2oBoG3ORHkD8MRxGKI2GcrWAggfqU1GAuOpA4BmPN0/9fCihHFNX1fl2gIIn5om5aYKAJpxLnDhNBmoBl3eKDkX1cC3FMupAIC2eTTqJ9693Y+zucMe1x45TqEol0qXs8cqc4iwiQNA27yIHhciPG7sBpFiEnQCL2rKjdKd/KfsRAGgGeuADRVN/K3AXcBzjPw+ITlrHK1mfBx4sbHf54ADgaOM9KPI3Aq0WnLcp+NE2sQAoBnnA29PHrV7uZqji/rJ32rkdy89jpONONCg8xzFnO/748b+xyEcSI8WwnONfYaTKadIl2uS+ZRgMBEAVDL5yuUoH5SN3OgnscWfIZxpsoFynnR571JabfFmhPcY+18uXX6jAI+7eHqlWfYwAco50q1sNTQNwxGNHQAVLPub6dGVjWxbGKW2ORzlDuOovyw5Rw+i1czzfKqJj3CEdPj6og7zHM0cLeAVpv6DiV4tOZcl9I/uOlYAaIvTEf48Wst+h38FLpCczXv214z3FWcHFtZnDeLhn+bMT96fWJgA75ec3xmgi+PhtrbYK+g+q1U8WTbwFaMOyWRjA0Di5Lun/gLZ6EGwW9OMRwD/7B08Qs3w5q0tbkBYHWIF/Ah4nOR8by+d5jmMOQ+CsqvBwYP4GnSKJhkLALTFCxH+Ilq7EU/94tIbt3e/VLpsGaVHFFAHvEss5V2sKGVWg9sk58gS9oruUjsAdD0Hcr+/N48d0BZ6nDvoqV+c/LXsx4/xVZTHGkZ+teQ830DntoLPAKcEaYVv8H88cZQLmfZXA3fyd3qQ3+4El0nOqyP7RJPXD4CMLjAfqdkWyXlpqI+2aCNcHKLzvwsvlo5tFfKHU8onTHyVddKlE6LVzL/7xILgnZLzthDvlN9rBYC2eDnC5ZEKmibf8dQWtyCD3+j3kHmT5Bwfo4dmfAn41WAfZZt0vf9hsJUCgRFgQeFDCGoDgJ7Do9jlv9EfE6GcffIzPzlukixtbey9vGb+mHiThTlwvOTcZKEtBQI4VXJquUWsDwAZG4HXWIxS0Jgn3z/9bX4P5Y0G/ndwD0+WzdxnoF0k0VewL/vx98ARwX7ChdLhTUG6giAaBMq10uV5Vv4xdLUAQNuchvLJCEU+KXnc/b9m/KPJPUx4i3SMJ3x7KKxtzkN5t2Ec0W/tmvn3kRcaeC+Q/LrkVO5UUjkACsfNL4JtXwTupMezZKOfUFPTFr+M8Dcm4v63eqnLFs34+eKMISxK+RXp8rdhwj6FznMkc96j+CBTH2WrdA3vJCZmDxBVD4DYSx7lNdI177V947W5GKVtGOs1khs+50Yw0oyrgZODspz/X8ffbpqbtliL8MfmDhD9LhPiXSkAvPfufdxqduAU/lQ68adlmvkTwUeHBkcFFyzaYj3CHwVlwbckjz/+1TabUX7TwB+co+ndHF2lt3G1AMh4vTsjNw0GtrOLE2QT3zXS95/+Fj+HO4CxtdLL/wL7yG3gsdLlmzbViq1gLQezD27LdNuNpb1Ocv7AQmihqQwAxd7/d6YXM6fZHC+Ri70jRlTTjHcBbzF0Sl7+l4DAtg3AuyXnrQbddiPRdayhxxXGftvZyTFVBZ9UB4DMf/K5T79w0/4dfqkm/rPs4GDfFBmDmNsuiL4bcS29txSbDNfvbZLzzqANDARVAsCd909XuJbBAMuU5OuSG84nDIOrBABFoKbpJMygU0NisYCyWrr8pYV0FE01AMj4feC1qco0/SMsoLxLuvxuRI+BpMkA8PF7wm0TC9FOtcDy7X+z5D6KKqlVAQAXzPHRJC2azuUs0OMxo/wlLEyrAIC7C88swhqayi3Qlpw8hWsVAPiHEt4+KTo3fRcsIHxaOrwgxSBJACjcnf4lRYGmb5IF7pPcHMxS/UtgpBt10kibzkMtcLLkfLasfdJWgMxHsoRvwJTFSJqyimrmo4dd+PjoprxJuvWEmGub30ZN5/AXSW5yVhk6FnOkk/Be6XBeyCzDfk8FwLXGYMy3Sm5yrBhukMxHzLwyONAS18tBngWBZj6A1HJ/8UHJeZWV7yA6zfx9h7v3GN1K3qg+8BoREjDid81w+384AkY5TbpclSDK3QJeiXBqkIcS9P0P8hhCoOt5PPdzW7C/cpV0OS1IN8q2LU5FuNLA4/OSmyOi92JXegUobv9cmtVwW8VBssFH75Zu2uYmlOOCDISTpOM9bWppmvE/wH4jmQtbpZPmvVPEU9xpGES0O9pSnuUBsI4n0OOrQQWVb0jXfNc9lJ1m3G5y0Kw5ts7oi3iH5PxC0DYBAm2xHQkGvfxQch5WVlZ5AGR+2XHvAKH2OcnTY+g18yvIw0PC6HGobPR5fmtpmvkxh5JQ3C25TyKR1IyyYBc/UTbBdXkAzLOGOYMTg/Bx6fCSJEv0I3fVxGMV+8oGnwG8lqZtrkD7mUVGNcnTQ++tsoog1VKOr+UBYA+l3iy5z/BZuum57M+P+C8Dgx9IzgEGutIkmvnw8XDU70P4SbmI/y4tqA96myzhROl4t7LolgIAa36fiyVnfbRmSzpE+AF+U/LgnpmiipsU69lHtH/gnoqZZQlnSKfchVx5AFjDshMPKpxRtJ9945bgzAnbpGOORwiyG0Sgbd6D8uZg5x7HLM1iEqQfQGCWJbxeOt4nI7qVB0Cb16F8ICixCgC0OQblr4Oy4BbJeZqBrjRJxKQ8TToG0I7QJELWRADwMtQUqpS+BdgjdLZLXm++QfOynBCRtIAJs6yJbAFtTkBNPmnpL4Fr+Sn2wZVxGd2U70uXnw6RpfxufjHbxUNlE/85FlkTegm0xc2N+zPwIB4s59eXp9/6aTb7n4EuPcs+/lg01Ko5CGrxH4jhE28Xh8RGG4UGsPR30+FMRSuRSZZTbhIHQf7tPOMHwEMDBvya5Dw+xsgD374znwksHD7V4wkxkcaxemnmU7iFahhU8i6iGf8E/GJAx8kcBRcAsMXoKwdI14OldNPMfwWEU7Ek7IcW5TTzhzuhlHTJXyPa4mGIqfbQZC6DCgC4xMnPDhquxzMWUroGaYcQRIRpm5NBxeoSESiaHJeo86xmjhsMOk7mOtgDwBraLPyWdEwh1kPHa5alnC1dLjUYLppEW74+oQsUHd0SnTQK256D8ochUSTKKn0QVChpOxWD5Jx32uYidO/UrAMMVFtFDnOuAOF90jG4r42YXc08iMNeRYkHbakAeDaK2waaNikLCM9JKWmbBIDiPcAVWrbm2Z+UmWZV7r2SB7yTgrtVomk087dQ4671k6j1zHT/mOS8LGU06StAuWygKTo3fRcsoJwpXT6UYpB0ALhy7ffzbylKNH1LWmAVP5tawTwZAMXXwBdQnllyGE23MhYQrpcOzyrTdWmfqgBgzaiZqm/Tf8ECCRlQ6wDAsSh/1czOGC0gPF063JwqsZIVoNgGvoam+8KnDmhF9Bdul07wkshkiuoAkPl8Ne8wSU1J4SYcDhwSlJMiYxBzWwq3HegDlcSCOu5JYJPhek1hmrhXcQAP9j5w4Svb/sDXSG6syrHEUOagSUi+kFn82rLmC4ZSQbARQadOpelMFOm3gcxnCrN6p7qaeyfGVscqqoRZ08uON1UsRFf7Ksbj0r25lc3SpjNVrAfA6TyIh7MN4UmWkQClwqiN8XkuuXJyNU7zBRCUupdXa9i7N/CUJ4suVoGYUiuuS3S1TG3TRk3FopK3gQg/hHXSCRePWvpgaOZv+2Kurqc7XfzintniJsQQyu06CP/OHM+UDd79ydQiHDMcv9LbQJ1yfK6BHtej/Ixt0MukYESxCpwBfNg0sD5RfMkYe76A+kvGlMgHMLMlY5asAp+NLK0eVzQq8w4XLm9QqNVfNAqinFBmvmhUsQq4/HWxaWHMINB5jmIOV5/A0qL3zqiycT2eIhu51aJI9OT3mS6/snEFCKxP6VLb2UFg9RSG+gpHRsQjlpz8qNXFAsKlNJWdBA4TrC0uQaJr4JpAEPGJVmfpWNOnZqnJVy6Vri9gWVurHQB+JbCXZN9tJQgWj3aZyvHl5sIFpKD64tHwLZcmV3JfSn5gK1082lDqvgpUjAUAxXbwbeCRkUq76mAXSM7moQbO/P2DLW++IYVcVPl4GFncOaF8/Hck59BIW5UiHycAbMGkg4exmR4XDEqNrn2PpDuCqds8CrlRuqPL2kSsVvewiiMGeeQUT/3bTalkBo+39NlFLArGBoBiK7AFVgwexdDVQONK1J81bEWJzH28UXJae6qa8NT3WSmnSJdrYieyLP1YAVCAwFqIcdiYNiNsWuoMUZRhdWnrLe3Lkg8uOa8Z24CnWpiwRxCqtnFOMWsTnvpK7i5Mui8hGjsAiveB2DPwQeNy6do2S5fPFDy3gDkd3V7XthHXzE7cFZJzegHo5yM+a1hqKrzoO5HYyR5EPxEAeMOt50nc78uzpzXn+CG+XqFLDvklI7N7UY5fKPZcFKN2fa0BLsf7F1plHrsTx3DVas5uOsomEwNA8dQ+ArjOXG109Oy6z8HvAScZQXCl5P3y7Zr5UvfW5M5OX6f3kUY5o8hc4umTYn0iKpC7yGKiAFjQwhwIWeXI/cz7aqfukCimgndVWiQHzFahyFQAoHgK7d/zVYy8z2NHwSrsY1idTMdp5PlBtaJGc5saAHgQtGgjJkePcdqoWlnKOunGOY5Uq8Du3KYKAMVK8ALUA+G5dQ587LyVaxE6kvOpscseIXDqALDkveCMAgjhIhHTZNE9dVG2FhP/kWlUc2oBsAQIZxdAsDqaToednQNn/4m/ZDoUGqzF1APAbwvO2/hA2kWFUmvcwaTs7vL259xFR7bUl7CyqsEtCwAsrgb94BMHhJdH+NFXZasQHxfn8CF20pHLTOndQvzG8vuyAsBSi2iLE/2hj/gQ6WPHYq29hdyM+gJV10nXlDd5QmoOF7tsAbAbGOY5jDlOQTgZ9SeB+9Zk6fsQrkO5hh5Xp1burknHKLYzAYC9Xrwznodwgg8iVR9I6v6cM0oore0CK5eZ3N0t7ED8YZEL+vxiSonWqFkZI/FMAmCY/bSf4PoQZBEUCyeAC5O8g13sKFuBa4zzVpmoFQWAyqw2Q4waAMzQZJYZSgOAMlaboT4NAGZoMssMpQFAGavNUJ8GADM0mWWG0gCgjNVmqE8DgBmazDJDaQBQxmoz1KcBwAxNZpmhNAAoY7UZ6tMAYIYms8xQGgCUsdoM9WkAMEOTWWYo/w9gXCbMQ2HhHAAAAABJRU5ErkJggg==;" vertex="1" parent="1">
                    <mxGeometry x="370" y="275" width="60" height="60" as="geometry"/>
                </mxCell>
                <mxCell id="10" value="Pod" style="shape=image;verticalLabelPosition=bottom;labelBackgroundColor=none;verticalAlign=top;aspect=fixed;imageAspect=0;image=data:image/png,iVBORw0KGgoAAAANSUhEUgAAAIAAAACACAYAAADDPmHLAAAAAXNSR0IArs4c6QAAEjNJREFUeF7tnQu4XFV1x39r7k1IpIpgggXa+ghohBJKqyDSqiiUxwcWpFAK4Su0eLlzJkGDgFSrxAfYRjAhyZwJsSg1UnlUHkVKaBSpVloFJCIgj6ptlArhqVDyupnVb6975jK5rzn7nDNnZu7M+r75Jjez99prrf0/j733egg96moLSFdr31OeHgC6HAQ9APQA0OUW6HL1e3eAHgC63AJdrn7vDtADQJdboMvV790BegCY+hbQAWYxjTlU2Q34jVGfKsKzwHNUeZYCzyI8xyaelS/ywlS3zpS7A2iJ9wJHoMyBkc+rEk7kr4DvAncBd9PHfbKCpxLyastuHQ8AHeT1FHg3cBjKCQivbLKl7wZ+AHyHnbhNltrdo2OpIwGgg+xFgWNRjkU4tmXWV3tc3Abc1qlg6CgAaJH50YS7Sd+5ZRM/3sB1YJCQq9tKtkmE6QgAaJEBhAHgDzrEsPeirJYKq9td3rYGQAdO/Oj5zhQIuoC5spKHswRVWwJAS/Z8/wjwh1kq20JemQBBAxYjfFfKrMtKl7YCgC7gDVRt4s/OSsG24iPcgfJxCW1Z6UUa8JvAN9ySVEJ7HGZCbQMALbIQscnfKxPN2pfJZuBvJOQyHxE14ELgs8DzErKrT9/J2rYcABqwN3AxcHJWSnUInxsiIPy4kbx6BjN4BfcA+0VtD5SQ9Y36xfm9pQDQgNNQLkH4nTjCTsE2vwR7JFw5mW5aZBChArxo29jCx6TMJVnYo2UA0IAVwIIslJgCPP5WQv56PD20xOuo8m27SIRFKEuB9RJyYBZ6twQAWmQtwpFZKDCFeKySkOJofTTgK8Bpdh4hLES519ooc6TCT9PqnzsAtMh6hAPSCj4l+wvXsImB2imkljgd5cuma5XDZBV3asC/Ae8EBiXkirR2yBUAGuCeeW4506OJLbCWIc6W1WzQgCeB3YGRu4PtBcBFwE0SckJaQ+YGAA3QtMJ2Uf/vofwI4SzgMfo5XJazwe78g7yHAt80W/Sxe9rj6VwAoIFtfBzSRROYnapVjpJV3F5jqIvpZyNu6bg3ymlS4R/TDNZ0AGjA5cA5aYTs2r5CIGVb/u1AGtgh0weAqyTkzDT2aSoAtMjFCB9NI2DX9hVulzJHjae/ljgF5avA4/QxR1awJamdmgYALXEOald/j3wtIGyVMjtN1E0/yGsZYgPKdITjpMzXfYeotW8KAKLTvFuSCtXV/YQNUuZ1jWygAbcCxyB8Xsp8uFH7iX7PHAC6kH3Zzr9AYyWSCj2F+90tIQfF0U9LnI+yJDodPDROn/HaZAoAXcwMNtrkH5ZUoC7ud4uEvC+u/rqAt1LFOahWmcaecrntGXhTtgAosQTlfG8peh1WSshCXzNoYHsDv43wfilzo29/1z4zAGiJd6K2TdkjPwucK6Ed8HiTBvw98FfAEgnNl8KbsgNAYLf+o70l6N4Ov0BYIGVuTmoCDfgz4Brg2xLyriR8MgGABgRAOYkAXdrnBgoslpX8KI3+WmRXC2tTtjKDV8tSNvnySw0A81UT3N51tzp1+Nj8fxE+M97ung+T+rYamJfwm4EjJeRfffmkB0CJj6Lm0tWjyS3wZbbzGbmCx7I0lAasAeYDn5aQT/jyTgUAXcirGOIHiAVh9mh8C9yCsDrNbt1khtWADwLLUO6QigXGelE6ANQG9xqyaxo3deJrVtSAd1gEs/B/UrbQdy9KDAA9iT5mW5TsPK8Rp37ja1HWSMW2aptOehLTmR0dBimHSIX/9Bk0OQDq3ZV8RpyabZ8D1lBgjaw09+1cSUusR83N7nwJudRn8OQACPga8H6fwaZUW7Gt17WoJZBYKyE/b5V+dRtCN0vI8T5yJAKAns0+9JlXSp/PYB3c1kXzPIzwMMojwK0S2j58W5AGFkq3CviZhLzRR6hkAAg4D/icz0Bt3vbXliNIed6+axPtvqs8LKv473aWX0scjEbP/peYKVfhABuLkgLgO20euesiaJwHsvs8Yd/CL6nyhH0rz9DP81R5ntk8J4upxrJWmzbSRezGFp6JxPMKG/MGQHTe/2Ab2cJdve4Qyu1H3MM07pVlNvFdRVrkGcSyoJ0qobmLxSJ/AAR2+uROoVpHwu12y6typwuWaJ0g7TOyBvYIONh3RzAJAGpHkK3QPpfNlVYoNnpMXcD+PodFdSFk/yQhJ8XVIQkAHqgLU447Ttp2XTPxNUM5v0qf7eO6iCGvwFEvAFjGzf5cEyU+grBEynwxLYI6qb+WOARlhoR8K67cFmqPBZJ6JZDwA0CRoxFz/MiDljDE52Q1T+cxWDuNoSWuYjYDspitceXaYSk4nV1lmS1pG5IvAFwal+UNuaZtoByb1156WlGz7q8DzKWfiyXkRB/eSZeCfgAosRz1d170UYQC83xefrx4d0DjKJRug28OIaeaBmwD+l3KXKlwUxx1/QDQbL+/IV4tq3EJmruStMSb7GyhwNFJDpU0sBQyO6MskgrL4hjRFwDOm8UldcqeprNnN27g1BvSgj6FWVJOdsg2shmkXCIVPhZnknwB0JwY/5TxbXEUbfc2WuIY1HwITpGQa5PIqwGPA3sCyyU0T6GGFBsAGpi3SfYFFJSTpcL1DSWd4g004A5gtoTsn1RVDSxn0BuAKyW05BINKT4AXETqNjtYyY6EZVJmUXYMO5NTXSS1SyCZ2MFWAzuinwtcKyGnxLFGfAAMMId+/isO05ht1jOdw+KuV2Py7LhmkW+FS/kyiz72lxX8JKkSdQm4nL9CrDoK8QFQZB7CD5MKN6afx1IlszHbkJEGlv7lj10iSClbgE1iGjkQUu6USrwA3fgAqHmfJhZvh47fkJAjsmHVuVw0MC8e583zAtt5u1zBQ2m0GUkhp1wjFf48Dq/4AKj3OonDebI2yulSsX3rriUtUUJZaQYQPivl9Kl0NDAAvQVlmVTivVvFB8A57MMQj2YwY/dIyNsy4NOxLKKaR7+IFPg5Qxwsq9M7sYxsBMFHJLTkEQ0pPgCyOgkULpQyf9dQsincQAM2uiVfdPVfIOX0/pVa4jXoyMHZX0gYZRhtYMf4AFhMgY1sTzkvQ2xn36zj41LKlGt3LfHvKLWULvfzEgf7OHFOJKwOciAFC9RxFDtQNDYAHFcN7IhxlxQWu05Ci2nvStLAVlEvR1Jl+C6kJf4EjQ6AlAOkwv1xjOwLgNpOUxzeY9so50jF0sR3HdXt0g3rntGLX82QUcWV4aN6jxSyvgBwYU/JS7cpx0jFCi12FWlgXlSz6pT2juBpZDAN7D3CxWtsl5D+Ru1rv/sC4J+B4+IyH6fdPhJmupuYQpR8umpgQRr1SR8fpcBRspKfZSmBBnaA5MruPC4hvxWXty8APg58Ki7z0e0kzC4pVVIZ8uqnE22dN8nbSQN7ATzQxUZIOf4y2w8A6XwCn5YwWvrkNQstGkdLVr18bLoWIZMl32i1Ri0Bvyohp8ZV3Q8A6fYCHpHQTqqmNNUVeNpRz4xf+uqZ77ACgPN83Mm8AOAG1cCWF/5n1sMVL6dKJdBxQaxFliDjJMr02JpNcnXUvQCOlJaJyycJAL4EnBF3gJF2HidU3rxb3MFF8VC1d6OxsfnC16TMnzZTRC1ZlraDLF3cFmbVag7FGTMJAFypN/+1/BQFQJQj0U3+a8Yx+I8lZN84E5G0jZZ4L2olZR39h4SWMyg2+QMg6angFANA5MjxSZj42DWPVY8WWYlQshlPUFDSGwDRe0CSDaGfSjg10slpkTMRu+VPtN72WovHvlxHNdQLeCUvmhvYcL3lPvaTFX4+BckAkLQUzBDTZbUFL3QkRSnZnA/jxM904ftStjDtppOWOAvlC9FAXunma8IlBcC7kARx+VX2l1W46OKOIh3k9RTMwWLy4lfCjUl9+pMYZNTJ4lmNahCPN0YiAESPgSRh4iUJCZMo24o+upjpPMkihA81LHiplKWSXy1kLXEyOhI/8DRDvCVJIG1yAJS4DOVcr4npkBdB/TCzeIn5CKcDv99QR+UCqaR36mg4Tl0DDexQrVZVLHYcwOgxkgNgkCMpsNZH6KjtQe2UYq1efg34vahQs4u136OhbsJDVDkv7xPOHWoKOyFTRFYlBoA9BmobEA0tVddgOHGy84RtC9IBptFnbtlu0mN50kaCX+eOX/NOEGnp+YeTYr0pkuNBCfndpMZMC4CXq1v7SKC8VSpRGXSffhm1tbp72zgcsU2Uw63ujh99QkI+7dclm9ZaYiUarfvtKowfCJrpS2CN2Uhgg59+X5HQnq+5kQbmLu0m+3AKNvE7ew+utvJZKhWcX0TupEVOQnB3nhptosqhsor7kgqT6g5gAAzMQcTfIAl2rXyU1IXsxHaro+O2Rl0e/eQHUcpPrEBjC1cwWuIElBtG2SBRkYh6HqkBEIHAoTJ2arIRATKODLY8OW6y1SbdfXb1Ac04bV1N3qX08fm0ZdrTyDGBc8mD9PEOWYFLlJmYsgFAmpJxKUCgRd6IcIR91K7w1ya2RH1H519fsMilNVIecbXOhLUvEz2DGbxi3GJQZ0rIVb78RrfPBAB2FyjyBSReTPoYoZUPSGXy7KM6wC708TYKduzpIovcZ3gPPDtaD1zNEFdnEamTVix7b2Hcvf2bJOSEtPxd/+wAMMheFHBhzq6CVRL6Jspy94Jl1UhmjZnspHzjyOIyc1ztk2M3DtM0beoyhoxm8xRV3pPVlnpmALC7QGC5bVwhiTTknBsb776lGcGE5U6EWynwdVlppdfaguxO18+FYJ+xpBSlYlHFmVCmAIhA4OL+LshEuuyZfM8Ve3AT3+pn+7hzW+RUxCZ+Ipe7zJfP2QNgMf1sNA+VRKVMM59zsdw7zkN3XTtOul00JY5FGZg05kJsKXpE1vEEmQPAFBrkUAoGghmTTOgtNjHKkwjvjpaRwxGz6WgLyjqGU8qvk4qVeGlLijXxNclTVAifTPmmAMBAUORchMvGGfxxhMHRmbCtCOV2O128yHu2lGcR1lHgdvctK6jF3nuzanYHdbEVBY5GrdB23JyLn5SQxc2QrWkAiEAw3tLwRAnH7GiZbvoh9mCrRdDGuRO4Kl3rqA5f7VLBlW5rG1L3KHyCuRQ4ALENqv1QO7TZ3VPIGyVMljgyzjhNBUAEgm9Ft3j3590SctBkgmlgVcgnSpbkEiG6cutreYrb5frhbNq6iJn8mpnMZAbCTLYxkwIz7d/KEH1sYjubKbCZrWy2jZXn2ZxJXP5wsMxclLkIb0aif8e/uiczxwMMcbysTp45rBEImg4Am6DAbslu0+YyCS2CdUKKnovu/aCebkJ5DLEsGLMoRN/Drtj1UbeN9B3vdxe86bZ83XftswVhM2p/u0hb9y6zE8IMl8d/5O/h/48diesp3IMUOC7rl77RMuQCgAgEivIPUpk8qETboSaR50w1ofkT9DEvj/OH3AAQgeBXCPOkzP9MZDQN7GQxTQh6E+YjV5bb2IldZOm4+/+ZC5IrACIQ3CahvQGPoQlu/5kr3bYMlcekMuLpk4uYuQMgAsFFEuKiakZIixwfVSPx9c7JxVA5DBI7v2+WsrQEAAaCYadS52fv8g8fEp3uZalbJ/GKndcva6VaBgADgdv8GaKEcEnWinUIPxdq70q+j00mkZMCLQVATUddwIlUuTJlCrqcTJbRMMoapnO+XG5l6FtGbQEAuxsMx9ivBt7eMmvkN7C76i/Nb7iJR2obABgIXCjWU6xCObMdjNMEGW4ELpWQu5rAOxHLtgLAyCOhxF+izId4Oe8TaZ5vp/sRLpUya/IdtvFobQmAOiC4QkoOCD4RO421zquFO8NXcy51V70r6dZ21NYAGAGCS4Tcx/wIDL6naa0w+l24lzzBefC05cTXjNIRABgBwgB7MG0ECC8nXW7FFI8dcxPKzRS4Tsq4Z31HUEcBoN6iWuSPLNpH7HvcreWcZsAdd7syrTdPdsaRkyzew3QsAHYAwyJ2Y6sBwUUF+Xja+BrM1Uv4Plhg6wNUuU9W2d8dS1MCAKOtrwF7R0BwkUOzXTlW1LyM3Mf5D8xsMGMvgZXHeRS170co8BAb+aFcn7poRluBZUoCoJGFrQpqgdlUDQzTUF6kjxcQXqSfF/M6im0kZx6/dyUA8jBsp4zRA0CnzFST5OwBoEmG7RS2PQB0ykw1Sc4eAJpk2E5h2wNAp8xUk+TsAaBJhu0Utj0AdMpMNUnOHgCaZNhOYdsDQKfMVJPk/H/zBU3Mo1OWCAAAAABJRU5ErkJggg==;" vertex="1" parent="1">
                    <mxGeometry x="140" y="270" width="60" height="60" as="geometry"/>
                </mxCell>
                <mxCell id="11" value="Pod" style="shape=image;verticalLabelPosition=bottom;labelBackgroundColor=none;verticalAlign=top;aspect=fixed;imageAspect=0;image=data:image/png,iVBORw0KGgoAAAANSUhEUgAAAIAAAACACAYAAADDPmHLAAAAAXNSR0IArs4c6QAAEjNJREFUeF7tnQu4XFV1x39r7k1IpIpgggXa+ghohBJKqyDSqiiUxwcWpFAK4Su0eLlzJkGDgFSrxAfYRjAhyZwJsSg1UnlUHkVKaBSpVloFJCIgj6ptlArhqVDyupnVb6975jK5rzn7nDNnZu7M+r75Jjez99prrf0/j733egg96moLSFdr31OeHgC6HAQ9APQA0OUW6HL1e3eAHgC63AJdrn7vDtADQJdboMvV790BegCY+hbQAWYxjTlU2Q34jVGfKsKzwHNUeZYCzyI8xyaelS/ywlS3zpS7A2iJ9wJHoMyBkc+rEk7kr4DvAncBd9PHfbKCpxLyastuHQ8AHeT1FHg3cBjKCQivbLKl7wZ+AHyHnbhNltrdo2OpIwGgg+xFgWNRjkU4tmXWV3tc3Abc1qlg6CgAaJH50YS7Sd+5ZRM/3sB1YJCQq9tKtkmE6QgAaJEBhAHgDzrEsPeirJYKq9td3rYGQAdO/Oj5zhQIuoC5spKHswRVWwJAS/Z8/wjwh1kq20JemQBBAxYjfFfKrMtKl7YCgC7gDVRt4s/OSsG24iPcgfJxCW1Z6UUa8JvAN9ySVEJ7HGZCbQMALbIQscnfKxPN2pfJZuBvJOQyHxE14ELgs8DzErKrT9/J2rYcABqwN3AxcHJWSnUInxsiIPy4kbx6BjN4BfcA+0VtD5SQ9Y36xfm9pQDQgNNQLkH4nTjCTsE2vwR7JFw5mW5aZBChArxo29jCx6TMJVnYo2UA0IAVwIIslJgCPP5WQv56PD20xOuo8m27SIRFKEuB9RJyYBZ6twQAWmQtwpFZKDCFeKySkOJofTTgK8Bpdh4hLES519ooc6TCT9PqnzsAtMh6hAPSCj4l+wvXsImB2imkljgd5cuma5XDZBV3asC/Ae8EBiXkirR2yBUAGuCeeW4506OJLbCWIc6W1WzQgCeB3YGRu4PtBcBFwE0SckJaQ+YGAA3QtMJ2Uf/vofwI4SzgMfo5XJazwe78g7yHAt80W/Sxe9rj6VwAoIFtfBzSRROYnapVjpJV3F5jqIvpZyNu6bg3ymlS4R/TDNZ0AGjA5cA5aYTs2r5CIGVb/u1AGtgh0weAqyTkzDT2aSoAtMjFCB9NI2DX9hVulzJHjae/ljgF5avA4/QxR1awJamdmgYALXEOald/j3wtIGyVMjtN1E0/yGsZYgPKdITjpMzXfYeotW8KAKLTvFuSCtXV/YQNUuZ1jWygAbcCxyB8Xsp8uFH7iX7PHAC6kH3Zzr9AYyWSCj2F+90tIQfF0U9LnI+yJDodPDROn/HaZAoAXcwMNtrkH5ZUoC7ud4uEvC+u/rqAt1LFOahWmcaecrntGXhTtgAosQTlfG8peh1WSshCXzNoYHsDv43wfilzo29/1z4zAGiJd6K2TdkjPwucK6Ed8HiTBvw98FfAEgnNl8KbsgNAYLf+o70l6N4Ov0BYIGVuTmoCDfgz4Brg2xLyriR8MgGABgRAOYkAXdrnBgoslpX8KI3+WmRXC2tTtjKDV8tSNvnySw0A81UT3N51tzp1+Nj8fxE+M97ung+T+rYamJfwm4EjJeRfffmkB0CJj6Lm0tWjyS3wZbbzGbmCx7I0lAasAeYDn5aQT/jyTgUAXcirGOIHiAVh9mh8C9yCsDrNbt1khtWADwLLUO6QigXGelE6ANQG9xqyaxo3deJrVtSAd1gEs/B/UrbQdy9KDAA9iT5mW5TsPK8Rp37ja1HWSMW2aptOehLTmR0dBimHSIX/9Bk0OQDq3ZV8RpyabZ8D1lBgjaw09+1cSUusR83N7nwJudRn8OQACPga8H6fwaZUW7Gt17WoJZBYKyE/b5V+dRtCN0vI8T5yJAKAns0+9JlXSp/PYB3c1kXzPIzwMMojwK0S2j58W5AGFkq3CviZhLzRR6hkAAg4D/icz0Bt3vbXliNIed6+axPtvqs8LKv473aWX0scjEbP/peYKVfhABuLkgLgO20euesiaJwHsvs8Yd/CL6nyhH0rz9DP81R5ntk8J4upxrJWmzbSRezGFp6JxPMKG/MGQHTe/2Ab2cJdve4Qyu1H3MM07pVlNvFdRVrkGcSyoJ0qobmLxSJ/AAR2+uROoVpHwu12y6typwuWaJ0g7TOyBvYIONh3RzAJAGpHkK3QPpfNlVYoNnpMXcD+PodFdSFk/yQhJ8XVIQkAHqgLU447Ttp2XTPxNUM5v0qf7eO6iCGvwFEvAFjGzf5cEyU+grBEynwxLYI6qb+WOARlhoR8K67cFmqPBZJ6JZDwA0CRoxFz/MiDljDE52Q1T+cxWDuNoSWuYjYDspitceXaYSk4nV1lmS1pG5IvAFwal+UNuaZtoByb1156WlGz7q8DzKWfiyXkRB/eSZeCfgAosRz1d170UYQC83xefrx4d0DjKJRug28OIaeaBmwD+l3KXKlwUxx1/QDQbL+/IV4tq3EJmruStMSb7GyhwNFJDpU0sBQyO6MskgrL4hjRFwDOm8UldcqeprNnN27g1BvSgj6FWVJOdsg2shmkXCIVPhZnknwB0JwY/5TxbXEUbfc2WuIY1HwITpGQa5PIqwGPA3sCyyU0T6GGFBsAGpi3SfYFFJSTpcL1DSWd4g004A5gtoTsn1RVDSxn0BuAKyW05BINKT4AXETqNjtYyY6EZVJmUXYMO5NTXSS1SyCZ2MFWAzuinwtcKyGnxLFGfAAMMId+/isO05ht1jOdw+KuV2Py7LhmkW+FS/kyiz72lxX8JKkSdQm4nL9CrDoK8QFQZB7CD5MKN6afx1IlszHbkJEGlv7lj10iSClbgE1iGjkQUu6USrwA3fgAqHmfJhZvh47fkJAjsmHVuVw0MC8e583zAtt5u1zBQ2m0GUkhp1wjFf48Dq/4AKj3OonDebI2yulSsX3rriUtUUJZaQYQPivl9Kl0NDAAvQVlmVTivVvFB8A57MMQj2YwY/dIyNsy4NOxLKKaR7+IFPg5Qxwsq9M7sYxsBMFHJLTkEQ0pPgCyOgkULpQyf9dQsincQAM2uiVfdPVfIOX0/pVa4jXoyMHZX0gYZRhtYMf4AFhMgY1sTzkvQ2xn36zj41LKlGt3LfHvKLWULvfzEgf7OHFOJKwOciAFC9RxFDtQNDYAHFcN7IhxlxQWu05Ci2nvStLAVlEvR1Jl+C6kJf4EjQ6AlAOkwv1xjOwLgNpOUxzeY9so50jF0sR3HdXt0g3rntGLX82QUcWV4aN6jxSyvgBwYU/JS7cpx0jFCi12FWlgXlSz6pT2juBpZDAN7D3CxWtsl5D+Ru1rv/sC4J+B4+IyH6fdPhJmupuYQpR8umpgQRr1SR8fpcBRspKfZSmBBnaA5MruPC4hvxWXty8APg58Ki7z0e0kzC4pVVIZ8uqnE22dN8nbSQN7ATzQxUZIOf4y2w8A6XwCn5YwWvrkNQstGkdLVr18bLoWIZMl32i1Ri0Bvyohp8ZV3Q8A6fYCHpHQTqqmNNUVeNpRz4xf+uqZ77ACgPN83Mm8AOAG1cCWF/5n1sMVL6dKJdBxQaxFliDjJMr02JpNcnXUvQCOlJaJyycJAL4EnBF3gJF2HidU3rxb3MFF8VC1d6OxsfnC16TMnzZTRC1ZlraDLF3cFmbVag7FGTMJAFypN/+1/BQFQJQj0U3+a8Yx+I8lZN84E5G0jZZ4L2olZR39h4SWMyg2+QMg6angFANA5MjxSZj42DWPVY8WWYlQshlPUFDSGwDRe0CSDaGfSjg10slpkTMRu+VPtN72WovHvlxHNdQLeCUvmhvYcL3lPvaTFX4+BckAkLQUzBDTZbUFL3QkRSnZnA/jxM904ftStjDtppOWOAvlC9FAXunma8IlBcC7kARx+VX2l1W46OKOIh3k9RTMwWLy4lfCjUl9+pMYZNTJ4lmNahCPN0YiAESPgSRh4iUJCZMo24o+upjpPMkihA81LHiplKWSXy1kLXEyOhI/8DRDvCVJIG1yAJS4DOVcr4npkBdB/TCzeIn5CKcDv99QR+UCqaR36mg4Tl0DDexQrVZVLHYcwOgxkgNgkCMpsNZH6KjtQe2UYq1efg34vahQs4u136OhbsJDVDkv7xPOHWoKOyFTRFYlBoA9BmobEA0tVddgOHGy84RtC9IBptFnbtlu0mN50kaCX+eOX/NOEGnp+YeTYr0pkuNBCfndpMZMC4CXq1v7SKC8VSpRGXSffhm1tbp72zgcsU2Uw63ujh99QkI+7dclm9ZaYiUarfvtKowfCJrpS2CN2Uhgg59+X5HQnq+5kQbmLu0m+3AKNvE7ew+utvJZKhWcX0TupEVOQnB3nhptosqhsor7kgqT6g5gAAzMQcTfIAl2rXyU1IXsxHaro+O2Rl0e/eQHUcpPrEBjC1cwWuIElBtG2SBRkYh6HqkBEIHAoTJ2arIRATKODLY8OW6y1SbdfXb1Ac04bV1N3qX08fm0ZdrTyDGBc8mD9PEOWYFLlJmYsgFAmpJxKUCgRd6IcIR91K7w1ya2RH1H519fsMilNVIecbXOhLUvEz2DGbxi3GJQZ0rIVb78RrfPBAB2FyjyBSReTPoYoZUPSGXy7KM6wC708TYKduzpIovcZ3gPPDtaD1zNEFdnEamTVix7b2Hcvf2bJOSEtPxd/+wAMMheFHBhzq6CVRL6Jspy94Jl1UhmjZnspHzjyOIyc1ztk2M3DtM0beoyhoxm8xRV3pPVlnpmALC7QGC5bVwhiTTknBsb776lGcGE5U6EWynwdVlppdfaguxO18+FYJ+xpBSlYlHFmVCmAIhA4OL+LshEuuyZfM8Ve3AT3+pn+7hzW+RUxCZ+Ipe7zJfP2QNgMf1sNA+VRKVMM59zsdw7zkN3XTtOul00JY5FGZg05kJsKXpE1vEEmQPAFBrkUAoGghmTTOgtNjHKkwjvjpaRwxGz6WgLyjqGU8qvk4qVeGlLijXxNclTVAifTPmmAMBAUORchMvGGfxxhMHRmbCtCOV2O128yHu2lGcR1lHgdvctK6jF3nuzanYHdbEVBY5GrdB23JyLn5SQxc2QrWkAiEAw3tLwRAnH7GiZbvoh9mCrRdDGuRO4Kl3rqA5f7VLBlW5rG1L3KHyCuRQ4ALENqv1QO7TZ3VPIGyVMljgyzjhNBUAEgm9Ft3j3590SctBkgmlgVcgnSpbkEiG6cutreYrb5frhbNq6iJn8mpnMZAbCTLYxkwIz7d/KEH1sYjubKbCZrWy2jZXn2ZxJXP5wsMxclLkIb0aif8e/uiczxwMMcbysTp45rBEImg4Am6DAbslu0+YyCS2CdUKKnovu/aCebkJ5DLEsGLMoRN/Drtj1UbeN9B3vdxe86bZ83XftswVhM2p/u0hb9y6zE8IMl8d/5O/h/48diesp3IMUOC7rl77RMuQCgAgEivIPUpk8qETboSaR50w1ofkT9DEvj/OH3AAQgeBXCPOkzP9MZDQN7GQxTQh6E+YjV5bb2IldZOm4+/+ZC5IrACIQ3CahvQGPoQlu/5kr3bYMlcekMuLpk4uYuQMgAsFFEuKiakZIixwfVSPx9c7JxVA5DBI7v2+WsrQEAAaCYadS52fv8g8fEp3uZalbJ/GKndcva6VaBgADgdv8GaKEcEnWinUIPxdq70q+j00mkZMCLQVATUddwIlUuTJlCrqcTJbRMMoapnO+XG5l6FtGbQEAuxsMx9ivBt7eMmvkN7C76i/Nb7iJR2obABgIXCjWU6xCObMdjNMEGW4ELpWQu5rAOxHLtgLAyCOhxF+izId4Oe8TaZ5vp/sRLpUya/IdtvFobQmAOiC4QkoOCD4RO421zquFO8NXcy51V70r6dZ21NYAGAGCS4Tcx/wIDL6naa0w+l24lzzBefC05cTXjNIRABgBwgB7MG0ECC8nXW7FFI8dcxPKzRS4Tsq4Z31HUEcBoN6iWuSPLNpH7HvcreWcZsAdd7syrTdPdsaRkyzew3QsAHYAwyJ2Y6sBwUUF+Xja+BrM1Uv4Plhg6wNUuU9W2d8dS1MCAKOtrwF7R0BwkUOzXTlW1LyM3Mf5D8xsMGMvgZXHeRS170co8BAb+aFcn7poRluBZUoCoJGFrQpqgdlUDQzTUF6kjxcQXqSfF/M6im0kZx6/dyUA8jBsp4zRA0CnzFST5OwBoEmG7RS2PQB0ykw1Sc4eAJpk2E5h2wNAp8xUk+TsAaBJhu0Utj0AdMpMNUnOHgCaZNhOYdsDQKfMVJPk/H/zBU3Mo1OWCAAAAABJRU5ErkJggg==;" vertex="1" parent="1">
                    <mxGeometry x="140" y="370" width="60" height="60" as="geometry"/>
                </mxCell>
                <mxCell id="14" value="&amp;nbsp;Spring Boot 应用" style="text;html=1;strokeColor=none;fillColor=none;align=center;verticalAlign=middle;whiteSpace=wrap;rounded=0;" vertex="1" parent="1">
                    <mxGeometry x="120" y="140" width="100" height="20" as="geometry"/>
                </mxCell>
                <mxCell id="16" value="k8s 集群" style="text;html=1;strokeColor=none;fillColor=none;align=center;verticalAlign=middle;whiteSpace=wrap;rounded=0;" vertex="1" parent="1">
                    <mxGeometry x="245" y="480" width="90" height="20" as="geometry"/>
                </mxCell>
                <mxCell id="19" value="Spring Boot Actuator" style="text;html=1;strokeColor=none;fillColor=none;align=center;verticalAlign=middle;whiteSpace=wrap;rounded=0;" vertex="1" parent="1">
                    <mxGeometry x="246.5" y="280" width="117" height="20" as="geometry"/>
                </mxCell>
                <mxCell id="20" value="Micrometer Prometheus" style="text;html=1;strokeColor=none;fillColor=none;align=center;verticalAlign=middle;whiteSpace=wrap;rounded=0;" vertex="1" parent="1">
                    <mxGeometry x="230" y="310" width="150" height="20" as="geometry"/>
                </mxCell>
                <mxCell id="25" style="edgeStyle=orthogonalEdgeStyle;rounded=0;orthogonalLoop=1;jettySize=auto;html=1;exitX=1;exitY=0.5;exitDx=0;exitDy=0;entryX=0;entryY=0.5;entryDx=0;entryDy=0;" edge="1" parent="1" source="23" target="3">
                    <mxGeometry relative="1" as="geometry"/>
                </mxCell>
                <mxCell id="23" value="Service Monitor" style="shape=image;verticalLabelPosition=bottom;labelBackgroundColor=none;verticalAlign=top;aspect=fixed;imageAspect=0;image=data:image/png,iVBORw0KGgoAAAANSUhEUgAAAIAAAACACAYAAADDPmHLAAAAAXNSR0IArs4c6QAADDNJREFUeF7tnX+sXEUVxz/nlYcEFUyAFvA3AX9gAohCEyr+QKQWEVD5bcRGoLJ33+OH8qMgKAGU38Ha3btVIaAEUAo1SpRKpSLoHxAxscafqFgVWxCNCBIUusfMvH3te9t9e2d27+69992Z5GabvjNn5pzv986de+bMXCGUUntASm19MJ5AgJKTIBAgEKDkHii5+WEECAQouQdKbn4YAQIBSu6BkpsfRoBAgJJ7oOTmhxEgEKDkHii5+WEECAQouQemmK+XsA1PcgjKboywq/3FXru2fs2/TdnQujbaX2EDTTba37mslUt4sSheLf0IoKczlxGOAnt9ICXgVtJkFXNYI3X+kZLOgagpJQE0Yk+URQiLwF6DLHcCP0BZIw3+OMiGetFdKgJohTcijIG9sig1lJo0+G0WjXdqsxQE0DOZx4uMoYwDO2bs/KcRlrMNNVnGExn3ZXYnhOhitmP7zXf8a7N2dlv764Eaz1GTm3k+q77N2hFAT+cERrgA2Ccr5zq2u44RrpIatznKpyo2KwmgFU5HaKTqqcEru0hiPj/4Zqa3MOsIoBFLgSuG7ciU2rtRYk5NSZeTmllFAK3yZZQlTpa7CZlJmrk2ojyBtCZtyjyEea0Akfk1VzpFWCt13puOsmQts4YAGvFT4G3JJneVMEEb885+lzRY6aNLKxzJCB9EORKY61O3g+xjErNHnzqcqs8KAmiEOlnbWciEc1cB90lsf/suWmERIyxCObY1SvSkU+LBv6UVngAa2eja6709rDyDUAdiifmLd32HChrxasDQs4rwcocq7SKPSMzbe6jnXKXQBNAq96Ec4mzthOAmBHNvxVLjN551exLXMd6EWiJEwBwvJcJXpM4nvep4CBeWABpxA3CKh61G9B6Ei6TOzzzrpSKuVfZHWQa8w1PhBRJzpWcdJ/FCEkAjPgNc7mThFqHLJOaznnUGIq5VbkU5yUu5UpEGK7zqOAgXjgA6xkk0udXBti0iylHS4DtedQYs3BOJm5woK/hGml0rFAFasf2HvMK7I7xSavwtTaelpUsj3gz8ykPfOp5jfpprB8UiQMQ5wDUeDttbYn7tIT90UR1jd5o87tHwuRJzrYd8V9HCEMAu6b6AuftdV/Uyia33AowNIgnfdqy7nlHmp7WUXBwCVLkM5SInJwm3SZ2POsnmREgjLgUuduqOcLnUHWUTFBaCAK1MHnP3uyRz/FhiDnZyZM6ENOJ7jilqT6PMTyOzqBgEiFjumMZlgjwHZvWe3y+fWnGChx2DRTWJbYZTXyX3BNAKeyD8wclKYbnUOcNJNqdCWuVLrdQ1lx7uJTG/dxGcSSb/BIhsGDQ5AGJi+3M4cFjh3X6c3q2uDRtv4mGntQPlDGnY0bHnUgQCmGXZYxwsvFJimwLmXHScXWjSQGlKzHHOFQcsqJFNaDGJLUnlHok5PEmo299zTQCtshPKUw4GmiXdA31W9VrP268C+1v9whVS50KHtgYu0lpFNHMBsyOpe2kyT1bwZJJYIR8BrcTO2xON83z2z/jeLSyWOl9LbG8IAhrZpWqzephUlkiMIXJPJd8jQMQdYJMquhflcGlwT5KY+btWuB7hrI6ywr/YxEJZgbn7Mi0a8WHgLodOfFdijnCQm8HkXmsOuF5ro+YLDs08KbFbTp5G3AQsTtD5EH9ngaxkk0PbAxXRyD7+dkpsZC6jvW5Ize0IoBGHAd9PNF64Qeqclihn7v6IS4DPJcoqt0iDkxPlBiygkV35O96hmYUSc6+D3FYi+SVAhY8j3JxolOdSr7NTlQulkZxerufwUp7lAFnB/Yl99RTQCsci9jGY9AhcLI3e5i75JUCV89HkLBjfxEk9i934H6sdl5S73llaZT5NrkNYgHCT1PlEEla+f3dKeBWWSp2rfHUb+fwSIOKLwJkJRj0hscOrUpsSHeMQmpYEown6H+e/7CM38s92Oa1wKmIJuuUZ7Thq+AClEeYVN2nfwTKJZ5jYJjSWZwJ8ExKDM+skZl8fh07KapWq2artUNekix+6ud7EKSJXA2d3rCscL3WHYduhYSOiET93GK3ukNhprlCgOUDEj4B3JvjpXolZ6OjLrcS0Qg2h6lD/aok5X8fZlyaXo11fu/6NcJjUbe5C30UjOxE2E+Ju5QGJeVcvjeV5BPgdsFdXo/qcresSRpnDasQhtVw5DrGJqG9wcPQjwBES2+G7r6IVvo7wsQQlj0rs1K9CjQDPAC9LMPxaiTm3Hw9rhX0QG0TavR89HequkpiP9KtTI5sCZ1LhupVnJe5p40muJ4H/AbYfNAGMfo3s8zPVbFvbb+VSaTjEHboYWWYC/Bns1qqZS5+PgKmKnYNEvrf0CMdIzSmk21FzmR8BZvfOWxP83dcksF23c5DIjwR/QlgodcycxruUeRJoQpvvS/BYz6+BnfR6Bol8wLxbYrtt3LuU9zWwwu0IJyR4rKdAUNenSsT77R5Ct2I2nKwDW6d7Ub4gDbulzauUORDklAjqGwp28b7jtq0HbdbO8/yC7WzO4i6JuoUTpe432SxzKNh15W4g+/40sodFfGgGUG9mlKWTmzN0jHfT5IeJBIDHW/OBXzrImtyFEi8GVTgY4YFER3ksByfqahPQKutRXjPtv4WLpb71zmR137a2WmK342k9JqWzcDnYROlGeRZl2wTgnBNCeiDA1JxEc37QuMTMmKKmVW5HE+ctJj5wjTQ4L6k/pU4IMc7RyE7GXCZYzilhSU5v/7tG7GdXJefQkOXJqWIa8SiwZ2I7TU6WFdwyk1zpU8JaBHA7CMIzKTQRnD4EWsfPJ58BrNwvDd7ThQAhKVQrHIqwxgEP77RwB509i2iFoxG+1UXBU4xwitQ6H1oR0sJbntNxdmCTPchp8ksd3UDx3hjSM8IOFbXK1WjHhaoHUU7rtrEzbAyZ4mCN7Iw7OYCSw61hGvET4KDN5jic+BW2hrW/ik1sDjXr669IvPFyNBeY7OvmQI5wttRtmlvXEjaHdnCPVrkO5VNJzmudAZi77eE6zqtkOX9N6n/YHj6Dh3Scvdlkz/Z7SZITgXBAhIOTJkVymxK21ft4xZ7uWXGyLRwR4+QmI1QcAkwEZEy8PXkuMGF+OCTKgQaFIYCxRSuchXC9g12TIuGYuARnFYoAlgSRDbAc7UyCcFBkV1cVkQDmoOW7PR4FZvFlIEvGziTs9GbTy3nHZT8qdsq7tdsawXTHh8OiOxCxcCNAay7gliixtcHhuPg2nxSOAM5ZMjOPz+GDEVN8UygCpAD+FtPDJ2OsLwpDgFTBnz46hI9G9TObHUbdAYLf3v3w2bhhAOrTxhDB79St8OFIH7DSls0Y/LTNcdEXPh27+V3fNSe+3a0T+/jf0jrBYwcXr+dEJpO1i1xOAnu+85XjJj/5qlW7r/DTaO8niAyJGOHz8VMdnQb40/RNfE3cHCKdt9FgPVDjOWppfgTKl7S5GgHSBn9K6Hg/+1Vxsce4uSSV+PrRR/5phOVsQy2t7/74NN4umxsCDAr8aaOBySxqcgpqieCaV9CPf9vr1szJZGl86iWtTuWCAMMAv+0xYxJNDQnM5ZJy3o+/72x9kn6NNOyHrnNVMifAsMGfRoQl7MgoC1AOQu1pnwscDo90AXAlTVYxhzVSxwSXclsyJUCW4HdCxB4bty0H07TnE5qNoTsj9iTQnVuX+XcT2NC6TBh5A8IGmmy0v3NZ2+vJ3VmwJDMC5A38LJyfhzYzIUAAPw/QT/Rh6AQI4OcH/KETIICfL/CHSoAAfv7AHxoBAvj5BH8oBAjg5xf8gRMggJ9v8AdKgAB+/sEfGAEC+MUAfyAECOAXB/zUCRDALxb4qRIggF888FMjQAC/mOCnQoAAfnHB75sAAfxig98XAQL4xQe/PwJEPAa8zssNU/L2veoF4YF5oOd8AI3s93GPde5ZAN/ZVcMU7JkAppPOJAjgDxNTr7b6IoATCQL4XoAMW7hvAnQlQQB/2Hh6t5cKATqSIIDvDUYWFVIjwBQSHIBy3uQu3SyMCm26eyBVArg3GyTz4oFAgLwgkVE/AgEycnxemg0EyAsSGfUjECAjx+el2UCAvCCRUT8CATJyfF6aDQTICxIZ9SMQICPH56XZQIC8IJFRPwIBMnJ8XpoNBMgLEhn1IxAgI8fnpdlAgLwgkVE//g+i8RS93z8MuQAAAABJRU5ErkJggg==;" vertex="1" parent="1">
                    <mxGeometry x="570" y="275" width="60" height="60" as="geometry"/>
                </mxCell>
                <mxCell id="26" style="edgeStyle=orthogonalEdgeStyle;rounded=0;orthogonalLoop=1;jettySize=auto;html=1;exitX=0.5;exitY=1;exitDx=0;exitDy=0;" edge="1" parent="1" source="20" target="20">
                    <mxGeometry relative="1" as="geometry"/>
                </mxCell>
                <mxCell id="28" value="指标采集" style="text;html=1;strokeColor=none;fillColor=none;align=center;verticalAlign=middle;whiteSpace=wrap;rounded=0;" vertex="1" parent="1">
                    <mxGeometry x="630" y="280" width="100" height="20" as="geometry"/>
                </mxCell>
                <mxCell id="30" value="Prometheus 集群" style="text;html=1;strokeColor=none;fillColor=none;align=center;verticalAlign=middle;whiteSpace=wrap;rounded=0;" vertex="1" parent="1">
                    <mxGeometry x="607.5" y="390" width="105" height="20" as="geometry"/>
                </mxCell>
                <mxCell id="33" value="可视化监控、报警" style="text;html=1;strokeColor=none;fillColor=none;align=center;verticalAlign=middle;whiteSpace=wrap;rounded=0;" vertex="1" parent="1">
                    <mxGeometry x="840" y="280" width="100" height="20" as="geometry"/>
                </mxCell>
                <mxCell id="36" value="" style="edgeStyle=orthogonalEdgeStyle;rounded=0;orthogonalLoop=1;jettySize=auto;html=1;fontColor=#000000;" edge="1" parent="1" source="34" target="35">
                    <mxGeometry relative="1" as="geometry"/>
                </mxCell>
                <mxCell id="34" value="部署应用" style="rounded=0;whiteSpace=wrap;html=1;labelBackgroundColor=none;fillColor=#fff2cc;strokeColor=#d6b656;" vertex="1" parent="1">
                    <mxGeometry x="165" y="643" width="120" height="60" as="geometry"/>
                </mxCell>
                <mxCell id="38" value="" style="edgeStyle=orthogonalEdgeStyle;rounded=0;orthogonalLoop=1;jettySize=auto;html=1;fontColor=#000000;" edge="1" parent="1" source="35" target="37">
                    <mxGeometry relative="1" as="geometry"/>
                </mxCell>
                <mxCell id="35" value="配置服务发现" style="rounded=0;whiteSpace=wrap;html=1;labelBackgroundColor=none;fillColor=#fff2cc;strokeColor=#d6b656;" vertex="1" parent="1">
                    <mxGeometry x="365" y="643" width="120" height="60" as="geometry"/>
                </mxCell>
                <mxCell id="37" value="配置大盘" style="rounded=0;whiteSpace=wrap;html=1;labelBackgroundColor=none;fillColor=#fff2cc;strokeColor=#d6b656;" vertex="1" parent="1">
                    <mxGeometry x="565" y="643" width="120" height="60" as="geometry"/>
                </mxCell>
            </root>
        </mxGraphModel>
    </diagram>
</mxfile>